<svg width="28" height="36" viewBox="0 0 28 36" fill="none" xmlns="http://www.w3.org/2000/svg">
<path d="M27.3332 12.3322H22.3332V9.34891C22.3332 4.99891 19.1498 1.11557 14.8165 0.698906C13.6587 0.586955 12.4903 0.718228 11.3863 1.08431C10.2822 1.45038 9.26685 2.04318 8.40532 2.82468C7.54379 3.60618 6.85511 4.55912 6.38347 5.62237C5.91182 6.68563 5.66761 7.83573 5.6665 8.99891V12.3322H0.666504V35.6656H27.3332V12.3322ZM13.9998 27.3322C12.1665 27.3322 10.6665 25.8322 10.6665 23.9989C10.6665 22.1656 12.1665 20.6656 13.9998 20.6656C15.8332 20.6656 17.3332 22.1656 17.3332 23.9989C17.3332 25.8322 15.8332 27.3322 13.9998 27.3322ZM8.99984 12.3322V8.99891C8.99984 6.23224 11.2332 3.99891 13.9998 3.99891C16.7665 3.99891 18.9998 6.23224 18.9998 8.99891V12.3322H8.99984Z" fill="#F95954"/>
</svg>
