<svg width="95" height="74" viewBox="0 0 95 74" fill="none" xmlns="http://www.w3.org/2000/svg">
<path d="M30.5 15C30.5 22.9928 23.7999 29.5 15.5 29.5C7.20015 29.5 0.5 22.9928 0.5 15C0.5 7.0072 7.20015 0.5 15.5 0.5C23.7999 0.5 30.5 7.0072 30.5 15Z" fill="white" stroke="black"/>
<path d="M94.5 15C94.5 22.9928 87.7999 29.5 79.5 29.5C71.2001 29.5 64.5 22.9928 64.5 15C64.5 7.0072 71.2001 0.5 79.5 0.5C87.7999 0.5 94.5 7.0072 94.5 15Z" fill="white" stroke="black"/>
<circle cx="46" cy="59" r="14.5" fill="white" stroke="black"/>
<path d="M23 29L46.5696 43L72 29" stroke="black" stroke-linecap="round"/>
</svg>
