<svg width="16" height="15" viewBox="0 0 16 15" fill="none" xmlns="http://www.w3.org/2000/svg">
<path d="M8 14.0625C6.14348 14.0625 4.36301 13.3711 3.05025 12.1404C1.7375 10.9097 1 9.24048 1 7.5C1 5.75952 1.7375 4.09032 3.05025 2.85961C4.36301 1.6289 6.14348 0.9375 8 0.9375C9.85652 0.9375 11.637 1.6289 12.9497 2.85961C14.2625 4.09032 15 5.75952 15 7.5C15 9.24048 14.2625 10.9097 12.9497 12.1404C11.637 13.3711 9.85652 14.0625 8 14.0625ZM8 15C10.1217 15 12.1566 14.2098 13.6569 12.8033C15.1571 11.3968 16 9.48912 16 7.5C16 5.51088 15.1571 3.60322 13.6569 2.1967C12.1566 0.790176 10.1217 0 8 0C5.87827 0 3.84344 0.790176 2.34315 2.1967C0.842855 3.60322 0 5.51088 0 7.5C0 9.48912 0.842855 11.3968 2.34315 12.8033C3.84344 14.2098 5.87827 15 8 15V15Z" fill="#0D6FCA" fill-opacity="0.73"/>
<path d="M8.92995 6.17625L6.63995 6.44531L6.55795 6.80156L7.00795 6.87937C7.30195 6.945 7.35995 7.04437 7.29595 7.31906L6.55795 10.5703C6.36395 11.4112 6.66295 11.8069 7.36595 11.8069C7.91095 11.8069 8.54395 11.5706 8.83095 11.2462L8.91895 10.8562C8.71895 11.0212 8.42695 11.0869 8.23295 11.0869C7.95795 11.0869 7.85795 10.9059 7.92895 10.5872L8.92995 6.17625ZM8.99995 4.21875C8.99995 4.46739 8.8946 4.70585 8.70706 4.88166C8.51952 5.05748 8.26517 5.15625 7.99995 5.15625C7.73474 5.15625 7.48038 5.05748 7.29285 4.88166C7.10531 4.70585 6.99995 4.46739 6.99995 4.21875C6.99995 3.97011 7.10531 3.73165 7.29285 3.55584C7.48038 3.38002 7.73474 3.28125 7.99995 3.28125C8.26517 3.28125 8.51952 3.38002 8.70706 3.55584C8.8946 3.73165 8.99995 3.97011 8.99995 4.21875Z" fill="#0D6FCA" fill-opacity="0.73"/>
</svg>
