<svg width="7" height="23" viewBox="0 0 7 23" fill="none" xmlns="http://www.w3.org/2000/svg">
<path d="M6.76676 8.05825L1.18488 8.75781L0.985008 9.68406L2.08188 9.88637C2.79851 10.057 2.93988 10.3154 2.78388 11.0296L0.985008 19.4828C0.512133 21.6692 1.24095 22.6979 2.95451 22.6979C4.28295 22.6979 5.82588 22.0836 6.52545 21.2403L6.73994 20.2262C6.25244 20.6552 5.5407 20.8259 5.06782 20.8259C4.39751 20.8259 4.15376 20.3554 4.32682 19.5267L6.76676 8.05825ZM6.93738 2.96875C6.93738 3.61522 6.68058 4.2352 6.22346 4.69232C5.76634 5.14944 5.14635 5.40625 4.49988 5.40625C3.85342 5.40625 3.23343 5.14944 2.77631 4.69232C2.31919 4.2352 2.06238 3.61522 2.06238 2.96875C2.06238 2.32228 2.31919 1.7023 2.77631 1.24518C3.23343 0.788057 3.85342 0.53125 4.49988 0.53125C5.14635 0.53125 5.76634 0.788057 6.22346 1.24518C6.68058 1.7023 6.93738 2.32228 6.93738 2.96875Z" fill="#0D6FCA" fill-opacity="0.73"/>
</svg>
