<svg width="61" height="52" viewBox="0 0 61 52" fill="none" xmlns="http://www.w3.org/2000/svg">
<g clip-path="url(#clip0_313_14191)">
<path d="M11.0893 51.7413V48.2996C11.0893 46.98 10.3569 46.1198 9.10135 46.1198C8.47371 46.1198 7.79366 46.3492 7.32282 47.095C6.95682 46.4639 6.43379 46.1198 5.64913 46.1198C5.12586 46.1198 4.60307 46.2917 4.18441 46.9228V46.2345H3.08594V51.7413H4.18441V48.701C4.18441 47.726 4.65526 47.2669 5.38773 47.2669C6.11973 47.2669 6.48621 47.7833 6.48621 48.701V51.7413H7.58469V48.701C7.58469 47.726 8.10748 47.2669 8.78753 47.2669C9.52001 47.2669 9.88601 47.7833 9.88601 48.701V51.7413H11.0893V51.7413ZM27.357 46.2345H25.5787V44.571H24.4803V46.2345H23.4864V47.3242H24.48V49.8484C24.48 51.1105 24.9509 51.856 26.2064 51.856C26.6772 51.856 27.2 51.6841 27.5665 51.4546L27.2524 50.4219C26.9386 50.6514 26.5726 50.7089 26.311 50.7089C25.7879 50.7089 25.5787 50.3647 25.5787 49.7909V47.3242H27.357V46.2345V46.2345ZM36.6681 46.1195C36.0405 46.1195 35.6221 46.4639 35.3604 46.9228V46.2345H34.2619V51.7413H35.3604V48.6438C35.3604 47.726 35.7264 47.2097 36.4065 47.2097C36.6157 47.2097 36.8773 47.2672 37.0865 47.3244L37.4003 46.1773C37.1911 46.1198 36.8773 46.1198 36.6681 46.1198V46.1195ZM22.5971 46.6934C22.0739 46.2917 21.3416 46.1198 20.557 46.1198C19.3017 46.1198 18.4648 46.8081 18.4648 47.898C18.4648 48.816 19.0925 49.332 20.191 49.5042L20.714 49.5617C21.2894 49.6762 21.6033 49.8484 21.6033 50.1353C21.6033 50.5367 21.1848 50.8236 20.4524 50.8236C19.7201 50.8236 19.1447 50.5367 18.7784 50.25L18.2554 51.1677C18.8308 51.6266 19.6155 51.856 20.3999 51.856C21.8646 51.856 22.7017 51.1105 22.7017 50.0778C22.7017 49.1026 22.0217 48.5863 20.9754 48.4143L20.4524 48.3568C19.9815 48.2994 19.6155 48.1849 19.6155 47.8408C19.6155 47.4391 19.9815 47.2097 20.557 47.2097C21.1848 47.2097 21.8125 47.4964 22.1263 47.6686L22.5971 46.6934V46.6934ZM51.7854 46.1198C51.1575 46.1198 50.7391 46.4639 50.4775 46.9228V46.2345H49.379V51.7413H50.4775V48.6438C50.4775 47.726 50.8437 47.2097 51.5235 47.2097C51.733 47.2097 51.9946 47.2672 52.2038 47.3244L52.5176 46.1773C52.3084 46.1198 51.9946 46.1198 51.7854 46.1198V46.1198ZM37.7666 48.9879C37.7666 50.6514 38.8126 51.856 40.4344 51.856C41.1666 51.856 41.6896 51.6841 42.2127 51.2252L41.6896 50.25C41.2712 50.5941 40.8528 50.7661 40.382 50.7661C39.4927 50.7661 38.8651 50.0778 38.8651 48.9879C38.8651 47.9555 39.4927 47.2669 40.382 47.2097C40.8528 47.2097 41.2712 47.3816 41.6896 47.726L42.2127 46.7508C41.6896 46.2917 41.1666 46.1198 40.4344 46.1198C38.8126 46.1198 37.7666 47.3244 37.7666 48.9879ZM47.9145 48.9879V46.2345H46.816V46.9228C46.4498 46.4067 45.9268 46.1198 45.2467 46.1198C43.8344 46.1198 42.7359 47.3244 42.7359 48.9879C42.7359 50.6514 43.8344 51.856 45.2467 51.856C45.9789 51.856 46.5022 51.5693 46.816 51.053V51.7413H47.9145V48.9879V48.9879ZM43.8866 48.9879C43.8866 48.0127 44.462 47.2097 45.4035 47.2097C46.2928 47.2097 46.9206 47.9555 46.9206 48.9879C46.9206 49.9631 46.2928 50.7661 45.4035 50.7661C44.462 50.7086 43.8866 49.9631 43.8866 48.9879V48.9879ZM30.7573 46.1198C29.2926 46.1198 28.2463 47.2669 28.2463 48.9879C28.2463 50.7089 29.2923 51.856 30.8095 51.856C31.5417 51.856 32.2742 51.6266 32.8496 51.1105L32.3264 50.25C31.908 50.5941 31.3849 50.8236 30.8619 50.8236C30.1819 50.8236 29.5018 50.4794 29.3448 49.504H33.0589V49.0454C33.1113 47.2669 32.1696 46.1198 30.7571 46.1198H30.7573ZM30.7573 47.1522C31.4371 47.1522 31.9082 47.6113 32.0126 48.4718H29.3972C29.5018 47.726 29.9726 47.1522 30.7573 47.1522ZM58.01 48.9879V44.0547H56.9115V46.9228C56.5453 46.4067 56.0223 46.1198 55.3422 46.1198C53.9299 46.1198 52.8314 47.3244 52.8314 48.9879C52.8314 50.6514 53.9299 51.856 55.3422 51.856C56.0747 51.856 56.5977 51.5693 56.9115 51.053V51.7413H58.01V48.9879V48.9879ZM53.9823 48.9879C53.9823 48.0127 54.5575 47.2097 55.4992 47.2097C56.3885 47.2097 57.0161 47.9555 57.0161 48.9879C57.0161 49.9631 56.3885 50.7661 55.4992 50.7661C54.5575 50.7086 53.9823 49.9631 53.9823 48.9879V48.9879ZM17.2615 48.9879V46.2345H16.1631V46.9228C15.7968 46.4067 15.2738 46.1198 14.5937 46.1198C13.1814 46.1198 12.083 47.3244 12.083 48.9879C12.083 50.6514 13.1814 51.856 14.5937 51.856C15.3262 51.856 15.8492 51.5693 16.1631 51.053V51.7413H17.2615V48.9879V48.9879ZM13.1814 48.9879C13.1814 48.0127 13.7569 47.2097 14.6983 47.2097C15.5876 47.2097 16.2155 47.9555 16.2155 48.9879C16.2155 49.9631 15.5876 50.7661 14.6983 50.7661C13.7569 50.7086 13.1814 49.9631 13.1814 48.9879V48.9879Z" fill="black"/>
<path d="M22.2314 4.41797H38.7086V36.8856H22.2314V4.41797Z" fill="#FF5F00"/>
<path d="M23.2775 20.6508C23.2775 14.0541 26.102 8.20293 30.4435 4.41686C27.2529 1.66348 23.2253 0 18.8314 0C8.42157 0 0 9.23536 0 20.6508C0 32.066 8.42157 41.3016 18.8311 41.3016C23.225 41.3016 27.2527 39.6381 30.4435 36.8845C26.102 33.1559 23.2775 27.2475 23.2775 20.6508V20.6508Z" fill="#EB001B"/>
<path d="M60.9396 20.6508C60.9396 32.066 52.518 41.3016 42.1085 41.3016C37.7146 41.3016 33.6869 39.6381 30.4961 36.8845C34.89 33.0987 37.6624 27.2475 37.6624 20.6508C37.6624 14.0541 34.8376 8.20293 30.4961 4.41686C33.6867 1.66348 37.7146 0 42.1085 0C52.518 0 60.9399 9.29284 60.9399 20.6508H60.9396Z" fill="#F79E1B"/>
</g>
<defs>
<clipPath id="clip0_313_14191">
<rect width="61" height="52" fill="white"/>
</clipPath>
</defs>
</svg>
