<svg width="436" height="393" viewBox="0 0 436 393" fill="none" xmlns="http://www.w3.org/2000/svg">
<path d="M190.297 162.719H186.069C186.013 162.719 185.968 162.764 185.968 162.82V163.766C185.968 163.821 186.013 163.867 186.069 163.867H188.76L185.416 167.232C184.577 166.582 183.554 166.231 182.478 166.231C181.188 166.231 179.973 166.737 179.062 167.656C178.151 168.574 177.646 169.795 177.646 171.093C177.646 172.392 178.149 173.614 179.062 174.531C179.973 175.449 181.188 175.956 182.478 175.956C183.768 175.956 184.983 175.449 185.894 174.531C186.807 173.614 187.31 172.392 187.31 171.093C187.31 170.011 186.961 168.984 186.317 168.14L189.659 164.777V167.48C189.659 167.536 189.705 167.581 189.76 167.581H190.7C190.755 167.581 190.8 167.536 190.8 167.48V163.225C190.8 162.947 190.574 162.719 190.297 162.719ZM182.478 174.673C180.517 174.673 178.921 173.067 178.921 171.093C178.921 169.12 180.517 167.514 182.478 167.514C184.44 167.514 186.035 169.12 186.035 171.093C186.035 173.067 184.44 174.673 182.478 174.673Z" fill="#0D6FCA"/>
<rect width="12.7448" height="1.29257" transform="matrix(-0.704885 -0.709322 -0.704885 0.709322 200.497 184.789)" fill="#9D2D9D"/>
<path d="M147.41 132.284L151.879 149.067L164.088 136.781L147.41 132.284ZM178.84 161.784L157.983 140.796L155.869 142.924L176.725 163.912L178.84 161.784Z" fill="#9D2D9D"/>
<path d="M245.038 169.951C245.948 169.046 246.45 167.841 246.45 166.561C246.45 165.279 245.95 164.075 245.038 163.17C244.128 162.265 242.916 161.766 241.629 161.766C240.342 161.766 239.13 162.264 238.22 163.17C237.31 164.077 236.807 165.279 236.807 166.561C236.807 167.638 237.162 168.661 237.816 169.497C237.94 169.656 238.074 169.806 238.218 169.951C238.362 170.095 238.515 170.228 238.673 170.351C239.345 170.871 240.138 171.202 240.984 171.314V173.112H239.048C238.973 173.112 238.912 173.173 238.912 173.247V174.26C238.912 174.334 238.973 174.395 239.048 174.395H240.984V176.759C240.984 176.833 241.045 176.894 241.119 176.894H242.138C242.213 176.894 242.274 176.833 242.274 176.759V174.395H244.209C244.284 174.395 244.345 174.334 244.345 174.26V173.247C244.345 173.173 244.284 173.112 244.209 173.112H242.274V171.314C243.318 171.175 244.281 170.704 245.038 169.951ZM241.629 170.073C240.685 170.073 239.8 169.708 239.131 169.044C238.464 168.381 238.097 167.499 238.097 166.561C238.097 165.622 238.464 164.742 239.131 164.077C239.799 163.412 240.685 163.049 241.629 163.049C242.573 163.049 243.457 163.414 244.126 164.077C244.793 164.741 245.16 165.622 245.16 166.561C245.16 167.499 244.793 168.379 244.126 169.044C243.457 169.708 242.573 170.073 241.629 170.073Z" fill="#D34645"/>
<rect width="12.8202" height="1.30021" transform="matrix(0.709056 -0.705152 0.709056 0.705152 225.155 184.789)" fill="#D34645"/>
<path d="M278.875 132.276L274.38 148.96L262.098 136.747L278.875 132.276ZM247.079 161.782L268.239 140.738L270.366 142.854L249.206 163.898L247.079 161.782Z" fill="#D34645"/>
<rect x="212.004" y="145.445" width="0.821707" height="34.5117" fill="#5A5A5A"/>
<path d="M278.564 263.436L274.081 246.706L261.834 258.953L278.564 263.436ZM264.161 251.154L267.958 254.951L270.079 252.83L266.282 249.033L264.161 251.154Z" fill="#973298"/>
<path d="M225.41 210.289L253.43 238.309" stroke="#973298" stroke-width="3"/>
<path d="M146.895 263.438L151.378 246.707L163.625 258.955L146.895 263.438ZM201.104 211.35L157.501 254.952L155.38 252.831L198.983 209.228L201.104 211.35Z" fill="#D85C5B"/>
<rect x="212.004" y="213.645" width="0.821707" height="78.0622" fill="#5A5A5A"/>
<rect x="276.457" y="227.156" width="0.389337" height="15.9507" transform="rotate(45 276.457 227.156)" stroke="#5A5A5A" stroke-dasharray="2 2"/>
<rect x="252.863" y="250.617" width="0.389337" height="15.9507" transform="rotate(45 252.863 250.617)" stroke="#5A5A5A" stroke-dasharray="2 2"/>
<rect x="229.855" y="272.809" width="0.389337" height="24.1934" transform="rotate(45 229.855 272.809)" stroke="#5A5A5A" stroke-dasharray="2 2"/>
<rect x="304.343" y="198.32" width="0.389337" height="22.5184" transform="rotate(45 304.343 198.32)" stroke="#5A5A5A" stroke-dasharray="2 2"/>
<rect x="212.004" y="103.539" width="0.821707" height="23.8295" fill="#5A5A5A"/>
<rect x="159.408" y="197.211" width="36.1551" height="0.821707" fill="#5A5A5A"/>
<rect x="262.13" y="197.211" width="45.1939" height="0.821707" fill="#5A5A5A"/>
<rect x="229.262" y="197.211" width="11.5039" height="0.821707" fill="#5A5A5A"/>
<circle cx="213.235" cy="197.617" r="16.9884" stroke="#FDC92F" stroke-width="3"/>
<rect x="145.8" y="118.816" width="85.3744" height="1.33426" transform="rotate(-45 145.8 118.816)" fill="#5A5A5A"/>
<rect x="74.0479" y="190.574" width="85.2033" height="1.33426" transform="rotate(-45 74.0479 190.574)" fill="#5A5A5A"/>
<rect width="85.3524" height="1.33426" transform="matrix(-0.707107 -0.707107 -0.707107 0.707107 281.517 117.871)" fill="#5A5A5A"/>
<rect width="84.5149" height="1.33426" transform="matrix(-0.707107 -0.707107 -0.707107 0.707107 351.712 190.574)" fill="#5A5A5A"/>
<rect x="351.708" y="204.008" width="84.9838" height="1.33426" transform="rotate(135 351.708 204.008)" fill="#5A5A5A"/>
<rect x="279.935" y="275.781" width="85.3577" height="1.33426" transform="rotate(135 279.935 275.781)" fill="#5A5A5A"/>
<rect width="84.8664" height="1.33426" transform="matrix(0.707107 0.707107 0.707107 -0.707107 146.159 276.121)" fill="#5A5A5A"/>
<rect width="85.0987" height="1.33426" transform="matrix(0.707107 0.707107 0.707107 -0.707107 74.0435 204.008)" fill="#5A5A5A"/>
<circle cx="104.359" cy="88.7494" r="16.5776" stroke="#5A5A5A" stroke-width="3"/>
<circle cx="125.314" cy="109.704" r="10.4148" stroke="#5A5A5A" stroke-width="3"/>
<path d="M147.229 124.902C147.229 129.132 143.973 132.441 140.102 132.441C136.23 132.441 132.974 129.132 132.974 124.902C132.974 120.672 136.23 117.363 140.102 117.363C143.973 117.363 147.229 120.672 147.229 124.902Z" stroke="#5A5A5A" stroke-width="3"/>
<path d="M147.229 270.34C147.229 274.57 143.973 277.878 140.102 277.878C136.23 277.878 132.974 274.57 132.974 270.34C132.974 266.109 136.23 262.801 140.102 262.801C143.973 262.801 147.229 266.109 147.229 270.34Z" stroke="#5A5A5A" stroke-width="3"/>
<path d="M292.674 270.34C292.674 274.57 289.418 277.878 285.546 277.878C281.674 277.878 278.418 274.57 278.418 270.34C278.418 266.109 281.674 262.801 285.546 262.801C289.418 262.801 292.674 266.109 292.674 270.34Z" stroke="#5A5A5A" stroke-width="3"/>
<path d="M292.674 124.902C292.674 129.132 289.418 132.441 285.546 132.441C281.674 132.441 278.418 129.132 278.418 124.902C278.418 120.672 281.674 117.363 285.546 117.363C289.418 117.363 292.674 120.672 292.674 124.902Z" stroke="#5A5A5A" stroke-width="3"/>
<circle cx="88.3356" cy="197.626" r="10.4148" stroke="#3962C6" stroke-width="3"/>
<rect x="119.973" y="197.211" width="23.0078" height="0.821707" fill="#5A5A5A"/>
<circle cx="151.607" cy="197.622" r="7.94963" stroke="#6BB561" stroke-width="3"/>
<path d="M220.369 135.989C220.369 140.443 216.931 143.938 212.83 143.938C208.728 143.938 205.291 140.443 205.291 135.989C205.291 131.535 208.728 128.039 212.83 128.039C216.931 128.039 220.369 131.535 220.369 135.989Z" stroke="#6BB561" stroke-width="3"/>
<circle cx="212.412" cy="72.7194" r="10.4148" stroke="#3962C6" stroke-width="3"/>
<path d="M222.828 321.7C222.828 327.502 218.3 332.115 212.824 332.115C207.348 332.115 202.82 327.502 202.82 321.7C202.82 315.898 207.348 311.285 212.824 311.285C218.3 311.285 222.828 315.898 222.828 321.7Z" stroke="#5A5A5A" stroke-width="3"/>
<path d="M348.548 197.626C348.548 203.33 343.75 208.04 337.723 208.04C331.695 208.04 326.897 203.33 326.897 197.626C326.897 191.921 331.695 187.211 337.723 187.211C343.75 187.211 348.548 191.921 348.548 197.626Z" stroke="#5A5A5A" stroke-width="3"/>
<circle cx="125.314" cy="284.723" r="10.4148" stroke="#5A5A5A" stroke-width="3"/>
<circle cx="300.333" cy="109.704" r="10.4148" stroke="#5A5A5A" stroke-width="3"/>
<circle cx="300.333" cy="284.723" r="10.4148" stroke="#5A5A5A" stroke-width="3"/>
<path d="M120.936 306.09C120.936 315.504 113.483 323.078 104.359 323.078C95.2349 323.078 87.7812 315.504 87.7812 306.09C87.7812 296.676 95.2349 289.102 104.359 289.102C113.483 289.102 120.936 296.676 120.936 306.09Z" stroke="#5A5A5A" stroke-width="3"/>
<path d="M338.689 88.7494C338.689 97.8734 331.115 105.327 321.701 105.327C312.286 105.327 304.712 97.8734 304.712 88.7494C304.712 79.6255 312.286 72.1719 321.701 72.1719C331.115 72.1719 338.689 79.6255 338.689 88.7494Z" stroke="#5A5A5A" stroke-width="3"/>
<circle cx="321.701" cy="306.09" r="16.9884" stroke="#5A5A5A" stroke-width="3"/>
<rect x="120.79" y="299.918" width="82.9924" height="1.64341" fill="#5A5A5A"/>
<rect x="221.042" y="299.918" width="83.8141" height="1.64341" fill="#5A5A5A"/>
<rect x="315.536" y="189.812" width="84.6358" height="1.64341" transform="rotate(-90 315.536 189.812)" fill="#5A5A5A"/>
<rect x="315.536" y="290.066" width="84.6358" height="1.64341" transform="rotate(-90 315.536 290.066)" fill="#5A5A5A"/>
<circle cx="213.235" cy="197.625" r="93.0855" stroke="#5A5A5A" stroke-width="2"/>
<path d="M323.893 197.622C323.893 202.076 320.456 205.571 316.355 205.571C312.253 205.571 308.816 202.076 308.816 197.622C308.816 193.168 312.253 189.672 316.355 189.672C320.456 189.672 323.893 193.168 323.893 197.622Z" stroke="#FF7A00" stroke-width="3"/>
<path d="M260.624 197.626C260.624 203.428 256.095 208.04 250.62 208.04C245.144 208.04 240.616 203.428 240.616 197.626C240.616 191.824 245.144 187.211 250.62 187.211C256.095 187.211 260.624 191.824 260.624 197.626Z" stroke="#5A5A5A" stroke-width="3"/>
<circle cx="212.83" cy="300.742" r="7.03878" stroke="#FF7A00" stroke-width="4"/>
<path d="M237.988 237.853C237.674 237.538 237.3 237.288 236.889 237.118C236.477 236.947 236.036 236.859 235.591 236.859C235.146 236.859 234.705 236.947 234.294 237.118C233.882 237.288 233.509 237.538 233.194 237.853L232.541 238.506L231.887 237.853C231.251 237.217 230.389 236.86 229.49 236.86C228.591 236.86 227.728 237.217 227.093 237.853C226.457 238.489 226.1 239.351 226.1 240.25C226.1 241.149 226.457 242.012 227.093 242.647L227.746 243.301L232.541 248.095L237.335 243.301L237.988 242.647C238.303 242.333 238.553 241.959 238.724 241.548C238.894 241.136 238.982 240.695 238.982 240.25C238.982 239.805 238.894 239.364 238.724 238.953C238.553 238.541 238.303 238.167 237.988 237.853V237.853Z" fill="#FF4F54"/>
<circle cx="35.4341" cy="197.35" r="4.66992" fill="#9D2D9D"/>
<path d="M7.42256 197.234C7.42256 197.811 7.37699 198.326 7.28584 198.782C7.19795 199.235 7.05798 199.619 6.86592 199.935C6.67386 200.25 6.42321 200.491 6.11397 200.657C5.80472 200.823 5.43037 200.906 4.99092 200.906C4.44079 200.906 3.98669 200.761 3.62862 200.472C3.27054 200.179 3.00524 199.759 2.83272 199.212C2.66019 198.662 2.57393 198.003 2.57393 197.234C2.57393 196.466 2.65205 195.809 2.8083 195.262C2.96781 194.712 3.22497 194.29 3.57979 193.997C3.93461 193.704 4.40498 193.558 4.99092 193.558C5.54431 193.558 6.00004 193.704 6.35811 193.997C6.71944 194.287 6.98636 194.707 7.15889 195.257C7.33467 195.804 7.42256 196.463 7.42256 197.234ZM3.73116 197.234C3.73116 197.837 3.77022 198.34 3.84834 198.743C3.92972 199.147 4.06319 199.45 4.24873 199.651C4.43428 199.85 4.68168 199.949 4.99092 199.949C5.30017 199.949 5.54756 199.85 5.73311 199.651C5.91866 199.453 6.05212 199.152 6.1335 198.748C6.21813 198.344 6.26045 197.84 6.26045 197.234C6.26045 196.635 6.21976 196.134 6.13838 195.73C6.057 195.327 5.92354 195.024 5.73799 194.822C5.55244 194.617 5.30342 194.515 4.99092 194.515C4.67842 194.515 4.4294 194.617 4.24385 194.822C4.06156 195.024 3.92972 195.327 3.84834 195.73C3.77022 196.134 3.73116 196.635 3.73116 197.234ZM15.7282 200.809H14.571V196.302H13.072C13.0069 197.122 12.9255 197.824 12.8278 198.406C12.7302 198.989 12.6081 199.464 12.4616 199.832C12.3151 200.197 12.1345 200.464 11.9196 200.633C11.7048 200.802 11.446 200.887 11.1433 200.887C11.0098 200.887 10.8894 200.877 10.7819 200.857C10.6745 200.841 10.5785 200.815 10.4939 200.779V199.876C10.5492 199.896 10.6094 199.912 10.6745 199.925C10.7396 199.938 10.8064 199.944 10.8747 199.944C10.9952 199.944 11.1058 199.896 11.2067 199.798C11.3109 199.697 11.4069 199.539 11.4948 199.324C11.5827 199.109 11.6625 198.826 11.7341 198.475C11.8057 198.12 11.8708 197.69 11.9294 197.186C11.988 196.678 12.0401 196.084 12.0856 195.403H15.7282V200.809ZM19.5271 195.301C20.0088 195.301 20.4222 195.4 20.7673 195.599C21.1123 195.797 21.3776 196.079 21.5632 196.443C21.7487 196.808 21.8415 197.244 21.8415 197.752V198.367H18.2331C18.2461 198.891 18.3861 199.295 18.653 199.578C18.9232 199.861 19.3008 200.003 19.7858 200.003C20.1309 200.003 20.4401 199.97 20.7136 199.905C20.9903 199.837 21.2751 199.738 21.5681 199.607V200.54C21.2979 200.667 21.0228 200.76 20.7429 200.818C20.4629 200.877 20.1276 200.906 19.737 200.906C19.2064 200.906 18.7393 200.804 18.3356 200.599C17.9353 200.39 17.6211 200.081 17.3933 199.671C17.1687 199.261 17.0564 198.751 17.0564 198.143C17.0564 197.537 17.1589 197.023 17.364 196.6C17.569 196.176 17.8571 195.854 18.2282 195.633C18.5993 195.411 19.0323 195.301 19.5271 195.301ZM19.5271 196.165C19.1657 196.165 18.8728 196.282 18.6481 196.517C18.4268 196.751 18.2966 197.094 18.2575 197.547H20.7185C20.7152 197.277 20.6696 197.037 20.5817 196.829C20.4971 196.621 20.3669 196.458 20.1911 196.341C20.0186 196.224 19.7972 196.165 19.5271 196.165ZM27.2175 196.307H25.4401V200.809H24.2976V196.307H22.53V195.403H27.2175V196.307Z" fill="#5A5A5A"/>
<circle cx="211.684" cy="374.451" r="4.66992" transform="rotate(-90 211.684 374.451)" fill="#D1474B"/>
<path d="M199.488 389.192C199.488 388.772 199.518 388.359 199.576 387.952C199.638 387.545 199.742 387.164 199.889 386.81C200.035 386.455 200.237 386.142 200.494 385.872C200.755 385.602 201.082 385.39 201.476 385.237C201.869 385.081 202.343 385.003 202.896 385.003C203.04 385.003 203.201 385.009 203.38 385.022C203.559 385.035 203.707 385.057 203.824 385.086V386.038C203.697 386.002 203.557 385.975 203.404 385.955C203.255 385.936 203.105 385.926 202.955 385.926C202.356 385.926 201.889 386.04 201.554 386.268C201.218 386.492 200.979 386.801 200.836 387.195C200.693 387.586 200.61 388.034 200.587 388.538H200.646C200.743 388.375 200.865 388.23 201.012 388.104C201.158 387.977 201.337 387.876 201.549 387.801C201.76 387.723 202.006 387.684 202.286 387.684C202.703 387.684 203.066 387.771 203.375 387.947C203.684 388.12 203.922 388.37 204.088 388.699C204.257 389.028 204.342 389.427 204.342 389.896C204.342 390.4 204.246 390.835 204.054 391.199C203.865 391.564 203.595 391.844 203.243 392.039C202.895 392.234 202.48 392.332 201.998 392.332C201.643 392.332 201.313 392.267 201.007 392.137C200.704 392.007 200.439 391.811 200.211 391.551C199.983 391.29 199.806 390.965 199.679 390.574C199.552 390.18 199.488 389.72 199.488 389.192ZM201.979 391.385C202.35 391.385 202.647 391.264 202.872 391.023C203.1 390.779 203.214 390.407 203.214 389.905C203.214 389.498 203.113 389.176 202.911 388.938C202.713 388.701 202.413 388.582 202.013 388.582C201.739 388.582 201.5 388.641 201.295 388.758C201.09 388.875 200.93 389.023 200.816 389.202C200.706 389.381 200.65 389.563 200.65 389.749C200.65 389.938 200.678 390.128 200.733 390.32C200.789 390.512 200.872 390.69 200.982 390.853C201.093 391.012 201.231 391.141 201.397 391.238C201.563 391.336 201.757 391.385 201.979 391.385ZM210.035 388.66C210.035 389.236 209.99 389.752 209.898 390.208C209.811 390.66 209.671 391.045 209.479 391.36C209.286 391.676 209.036 391.917 208.727 392.083C208.417 392.249 208.043 392.332 207.604 392.332C207.053 392.332 206.599 392.187 206.241 391.897C205.883 391.604 205.618 391.185 205.445 390.638C205.273 390.088 205.187 389.428 205.187 388.66C205.187 387.892 205.265 387.234 205.421 386.688C205.58 386.137 205.838 385.716 206.192 385.423C206.547 385.13 207.018 384.983 207.604 384.983C208.157 384.983 208.613 385.13 208.971 385.423C209.332 385.713 209.599 386.132 209.771 386.683C209.947 387.229 210.035 387.889 210.035 388.66ZM206.344 388.66C206.344 389.262 206.383 389.765 206.461 390.169C206.542 390.573 206.676 390.875 206.861 391.077C207.047 391.276 207.294 391.375 207.604 391.375C207.913 391.375 208.16 391.276 208.346 391.077C208.531 390.879 208.665 390.577 208.746 390.174C208.831 389.77 208.873 389.266 208.873 388.66C208.873 388.061 208.832 387.56 208.751 387.156C208.67 386.753 208.536 386.45 208.351 386.248C208.165 386.043 207.916 385.94 207.604 385.94C207.291 385.94 207.042 386.043 206.856 386.248C206.674 386.45 206.542 386.753 206.461 387.156C206.383 387.56 206.344 388.061 206.344 388.66ZM218.341 392.234H217.184V387.728H215.685C215.619 388.548 215.538 389.249 215.44 389.832C215.343 390.415 215.221 390.89 215.074 391.258C214.928 391.622 214.747 391.889 214.532 392.059C214.317 392.228 214.059 392.312 213.756 392.312C213.622 392.312 213.502 392.303 213.395 392.283C213.287 392.267 213.191 392.241 213.106 392.205V391.302C213.162 391.321 213.222 391.338 213.287 391.351C213.352 391.364 213.419 391.37 213.487 391.37C213.608 391.37 213.718 391.321 213.819 391.224C213.924 391.123 214.02 390.965 214.107 390.75C214.195 390.535 214.275 390.252 214.347 389.9C214.418 389.546 214.483 389.116 214.542 388.611C214.601 388.104 214.653 387.509 214.698 386.829H218.341V392.234ZM222.14 386.727C222.621 386.727 223.035 386.826 223.38 387.024C223.725 387.223 223.99 387.505 224.176 387.869C224.361 388.234 224.454 388.67 224.454 389.178V389.793H220.846C220.859 390.317 220.999 390.721 221.266 391.004C221.536 391.287 221.913 391.429 222.398 391.429C222.743 391.429 223.053 391.396 223.326 391.331C223.603 391.263 223.888 391.163 224.181 391.033V391.966C223.91 392.093 223.635 392.186 223.355 392.244C223.076 392.303 222.74 392.332 222.35 392.332C221.819 392.332 221.352 392.229 220.948 392.024C220.548 391.816 220.234 391.507 220.006 391.097C219.781 390.687 219.669 390.177 219.669 389.568C219.669 388.963 219.771 388.449 219.977 388.025C220.182 387.602 220.47 387.28 220.841 387.059C221.212 386.837 221.645 386.727 222.14 386.727ZM222.14 387.591C221.778 387.591 221.485 387.708 221.261 387.942C221.039 388.177 220.909 388.52 220.87 388.973H223.331C223.328 388.702 223.282 388.463 223.194 388.255C223.11 388.047 222.979 387.884 222.804 387.767C222.631 387.649 222.41 387.591 222.14 387.591ZM229.83 387.732H228.053V392.234H226.91V387.732H225.143V386.829H229.83V387.732Z" fill="#5A5A5A"/>
<ellipse cx="214.067" cy="19.6514" rx="4.80951" ry="4.56876" transform="rotate(-90 214.067 19.6514)" fill="#9D2D9D"/>
<path d="M206.876 11H202.042V10.1357L203.893 8.26074C204.251 7.89616 204.545 7.58203 204.776 7.31836C205.008 7.05143 205.178 6.79915 205.289 6.56152C205.403 6.32389 205.46 6.0651 205.46 5.78516C205.46 5.4401 205.361 5.17969 205.162 5.00391C204.964 4.82487 204.702 4.73535 204.376 4.73535C204.067 4.73535 203.78 4.7972 203.517 4.9209C203.256 5.04134 202.986 5.21387 202.706 5.43848L202.076 4.68164C202.275 4.51237 202.486 4.35775 202.711 4.21777C202.939 4.0778 203.193 3.96712 203.473 3.88574C203.753 3.80111 204.072 3.75879 204.43 3.75879C204.882 3.75879 205.273 3.84017 205.602 4.00293C205.93 4.16243 206.183 4.38542 206.358 4.67188C206.537 4.95833 206.627 5.29199 206.627 5.67285C206.627 6.05697 206.55 6.41178 206.397 6.7373C206.244 7.06283 206.026 7.38509 205.743 7.7041C205.46 8.01986 205.123 8.36328 204.732 8.73438L203.497 9.94043V9.99414H206.876V11ZM212.599 7.42578C212.599 8.00195 212.553 8.5179 212.462 8.97363C212.374 9.42611 212.234 9.81022 212.042 10.126C211.85 10.4417 211.599 10.6826 211.29 10.8486C210.981 11.0146 210.606 11.0977 210.167 11.0977C209.617 11.0977 209.163 10.9528 208.805 10.6631C208.447 10.3701 208.181 9.9502 208.009 9.40332C207.836 8.85319 207.75 8.19401 207.75 7.42578C207.75 6.65755 207.828 6 207.984 5.45312C208.144 4.90299 208.401 4.48145 208.756 4.18848C209.111 3.89551 209.581 3.74902 210.167 3.74902C210.72 3.74902 211.176 3.89551 211.534 4.18848C211.896 4.47819 212.162 4.89811 212.335 5.44824C212.511 5.99512 212.599 6.6543 212.599 7.42578ZM208.907 7.42578C208.907 8.02799 208.946 8.53092 209.024 8.93457C209.106 9.33822 209.239 9.64095 209.425 9.84277C209.61 10.0413 209.858 10.1406 210.167 10.1406C210.476 10.1406 210.724 10.0413 210.909 9.84277C211.095 9.64421 211.228 9.3431 211.31 8.93945C211.394 8.53581 211.437 8.03125 211.437 7.42578C211.437 6.82682 211.396 6.32552 211.314 5.92188C211.233 5.51823 211.1 5.21549 210.914 5.01367C210.729 4.80859 210.48 4.70605 210.167 4.70605C209.855 4.70605 209.605 4.80859 209.42 5.01367C209.238 5.21549 209.106 5.51823 209.024 5.92188C208.946 6.32552 208.907 6.82682 208.907 7.42578ZM220.904 11H219.747V6.49316H218.248C218.183 7.31348 218.102 8.01497 218.004 8.59766C217.906 9.18034 217.784 9.6556 217.638 10.0234C217.491 10.388 217.311 10.6549 217.096 10.8242C216.881 10.9935 216.622 11.0781 216.319 11.0781C216.186 11.0781 216.065 11.0684 215.958 11.0488C215.851 11.0326 215.755 11.0065 215.67 10.9707V10.0674C215.725 10.0869 215.785 10.1032 215.851 10.1162C215.916 10.1292 215.982 10.1357 216.051 10.1357C216.171 10.1357 216.282 10.0869 216.383 9.98926C216.487 9.88835 216.583 9.73047 216.671 9.51562C216.759 9.30078 216.839 9.01758 216.91 8.66602C216.982 8.3112 217.047 7.88151 217.105 7.37695C217.164 6.86914 217.216 6.27507 217.262 5.59473H220.904V11ZM224.703 5.49219C225.185 5.49219 225.598 5.59147 225.943 5.79004C226.288 5.98861 226.554 6.27018 226.739 6.63477C226.925 6.99935 227.018 7.43555 227.018 7.94336V8.55859H223.409C223.422 9.08268 223.562 9.48633 223.829 9.76953C224.099 10.0527 224.477 10.1943 224.962 10.1943C225.307 10.1943 225.616 10.1618 225.89 10.0967C226.166 10.0283 226.451 9.92904 226.744 9.79883V10.7314C226.474 10.8584 226.199 10.9512 225.919 11.0098C225.639 11.0684 225.304 11.0977 224.913 11.0977C224.383 11.0977 223.915 10.9951 223.512 10.79C223.111 10.5817 222.797 10.2725 222.569 9.8623C222.345 9.45215 222.232 8.94271 222.232 8.33398C222.232 7.72852 222.335 7.21419 222.54 6.79102C222.745 6.36784 223.033 6.04557 223.404 5.82422C223.775 5.60286 224.208 5.49219 224.703 5.49219ZM224.703 6.35645C224.342 6.35645 224.049 6.47363 223.824 6.70801C223.603 6.94238 223.473 7.28581 223.434 7.73828H225.895C225.891 7.4681 225.846 7.22884 225.758 7.02051C225.673 6.81217 225.543 6.64941 225.367 6.53223C225.195 6.41504 224.973 6.35645 224.703 6.35645ZM232.394 6.49805H230.616V11H229.474V6.49805H227.706V5.59473H232.394V6.49805Z" fill="#5A5A5A"/>
<circle cx="338.369" cy="72.4004" r="4.66992" fill="#5A5A5A"/>
<path d="M353.659 65.3398C353.659 65.6621 353.594 65.9421 353.464 66.1797C353.334 66.4173 353.155 66.6126 352.927 66.7656C352.702 66.9154 352.442 67.0228 352.146 67.0879V67.1221C352.715 67.1937 353.145 67.3727 353.435 67.6592C353.728 67.9456 353.874 68.3249 353.874 68.7969C353.874 69.2103 353.775 69.5798 353.576 69.9053C353.378 70.2275 353.073 70.4814 352.663 70.667C352.253 70.8525 351.726 70.9453 351.081 70.9453C350.694 70.9453 350.334 70.9144 350.002 70.8525C349.673 70.7907 349.361 70.6914 349.065 70.5547V69.5342C349.367 69.6839 349.69 69.7995 350.031 69.8809C350.373 69.9622 350.697 70.0029 351.003 70.0029C351.599 70.0029 352.024 69.8923 352.278 69.6709C352.531 69.4463 352.658 69.137 352.658 68.7432C352.658 68.4893 352.592 68.2809 352.458 68.1182C352.328 67.9554 352.125 67.8333 351.848 67.752C351.574 67.6706 351.221 67.6299 350.788 67.6299H350.158V66.707H350.793C351.207 66.707 351.539 66.6582 351.789 66.5605C352.04 66.4596 352.221 66.3213 352.331 66.1455C352.445 65.9697 352.502 65.7646 352.502 65.5303C352.502 65.2243 352.403 64.9867 352.204 64.8174C352.006 64.6449 351.711 64.5586 351.321 64.5586C351.08 64.5586 350.86 64.5863 350.661 64.6416C350.466 64.6969 350.285 64.7669 350.119 64.8516C349.953 64.9362 349.795 65.0273 349.646 65.125L349.094 64.3291C349.364 64.1273 349.686 63.9564 350.061 63.8164C350.435 63.6764 350.871 63.6064 351.369 63.6064C352.102 63.6064 352.667 63.7643 353.064 64.0801C353.461 64.3926 353.659 64.8125 353.659 65.3398ZM359.655 67.2734C359.655 67.8496 359.61 68.3656 359.519 68.8213C359.431 69.2738 359.291 69.6579 359.099 69.9736C358.907 70.2894 358.656 70.5303 358.347 70.6963C358.038 70.8623 357.663 70.9453 357.224 70.9453C356.674 70.9453 356.22 70.8005 355.862 70.5107C355.503 70.2178 355.238 69.7979 355.066 69.251C354.893 68.7008 354.807 68.0417 354.807 67.2734C354.807 66.5052 354.885 65.8477 355.041 65.3008C355.201 64.7507 355.458 64.3291 355.813 64.0361C356.168 63.7432 356.638 63.5967 357.224 63.5967C357.777 63.5967 358.233 63.7432 358.591 64.0361C358.952 64.3258 359.219 64.7458 359.392 65.2959C359.568 65.8428 359.655 66.502 359.655 67.2734ZM355.964 67.2734C355.964 67.8757 356.003 68.3786 356.081 68.7822C356.163 69.1859 356.296 69.4886 356.482 69.6904C356.667 69.889 356.915 69.9883 357.224 69.9883C357.533 69.9883 357.78 69.889 357.966 69.6904C358.152 69.4919 358.285 69.1908 358.366 68.7871C358.451 68.3835 358.493 67.8789 358.493 67.2734C358.493 66.6745 358.453 66.1732 358.371 65.7695C358.29 65.3659 358.156 65.0632 357.971 64.8613C357.785 64.6562 357.536 64.5537 357.224 64.5537C356.911 64.5537 356.662 64.6562 356.477 64.8613C356.294 65.0632 356.163 65.3659 356.081 65.7695C356.003 66.1732 355.964 66.6745 355.964 67.2734ZM367.961 70.8477H366.804V66.3408H365.305C365.24 67.1611 365.158 67.8626 365.061 68.4453C364.963 69.028 364.841 69.5033 364.695 69.8711C364.548 70.2357 364.367 70.5026 364.153 70.6719C363.938 70.8411 363.679 70.9258 363.376 70.9258C363.243 70.9258 363.122 70.916 363.015 70.8965C362.907 70.8802 362.811 70.8542 362.727 70.8184V69.915C362.782 69.9346 362.842 69.9508 362.907 69.9639C362.973 69.9769 363.039 69.9834 363.108 69.9834C363.228 69.9834 363.339 69.9346 363.44 69.8369C363.544 69.736 363.64 69.5781 363.728 69.3633C363.816 69.1484 363.895 68.8652 363.967 68.5137C364.039 68.1589 364.104 67.7292 364.162 67.2246C364.221 66.7168 364.273 66.1227 364.319 65.4424H367.961V70.8477ZM371.76 65.3398C372.242 65.3398 372.655 65.4391 373 65.6377C373.345 65.8363 373.611 66.1178 373.796 66.4824C373.982 66.847 374.074 67.2832 374.074 67.791V68.4062H370.466C370.479 68.9303 370.619 69.334 370.886 69.6172C371.156 69.9004 371.534 70.042 372.019 70.042C372.364 70.042 372.673 70.0094 372.947 69.9443C373.223 69.876 373.508 69.7767 373.801 69.6465V70.5791C373.531 70.7061 373.256 70.7988 372.976 70.8574C372.696 70.916 372.361 70.9453 371.97 70.9453C371.439 70.9453 370.972 70.8428 370.569 70.6377C370.168 70.4294 369.854 70.1201 369.626 69.71C369.402 69.2998 369.289 68.7904 369.289 68.1816C369.289 67.5762 369.392 67.0618 369.597 66.6387C369.802 66.2155 370.09 65.8932 370.461 65.6719C370.832 65.4505 371.265 65.3398 371.76 65.3398ZM371.76 66.2041C371.399 66.2041 371.106 66.3213 370.881 66.5557C370.66 66.79 370.53 67.1335 370.49 67.5859H372.951C372.948 67.3158 372.903 67.0765 372.815 66.8682C372.73 66.6598 372.6 66.4971 372.424 66.3799C372.252 66.2627 372.03 66.2041 371.76 66.2041ZM379.45 66.3457H377.673V70.8477H376.53V66.3457H374.763V65.4424H379.45V66.3457Z" fill="#5A5A5A"/>
<circle cx="338.288" cy="322.365" r="4.66992" fill="#5A5A5A"/>
<path d="M350.514 327.209C350.973 327.209 351.376 327.292 351.724 327.458C352.076 327.621 352.349 327.862 352.545 328.181C352.74 328.496 352.838 328.884 352.838 329.343C352.838 329.844 352.732 330.277 352.52 330.642C352.309 331.003 351.998 331.281 351.588 331.477C351.178 331.672 350.678 331.77 350.089 331.77C349.714 331.77 349.364 331.737 349.039 331.672C348.717 331.607 348.438 331.509 348.204 331.379V330.344C348.448 330.48 348.741 330.593 349.083 330.681C349.425 330.765 349.752 330.808 350.064 330.808C350.396 330.808 350.681 330.759 350.919 330.661C351.156 330.563 351.339 330.414 351.466 330.212C351.596 330.01 351.661 329.755 351.661 329.445C351.661 329.035 351.529 328.719 351.265 328.498C351.005 328.273 350.597 328.161 350.04 328.161C349.845 328.161 349.636 328.179 349.415 328.215C349.197 328.247 349.015 328.283 348.868 328.322L348.365 328.024L348.634 324.533H352.345V325.544H349.644L349.488 327.321C349.605 327.295 349.745 327.271 349.908 327.248C350.071 327.222 350.273 327.209 350.514 327.209ZM358.643 328.098C358.643 328.674 358.598 329.19 358.507 329.646C358.419 330.098 358.279 330.482 358.087 330.798C357.895 331.114 357.644 331.354 357.335 331.521C357.026 331.687 356.651 331.77 356.212 331.77C355.662 331.77 355.208 331.625 354.849 331.335C354.491 331.042 354.226 330.622 354.054 330.075C353.881 329.525 353.795 328.866 353.795 328.098C353.795 327.329 353.873 326.672 354.029 326.125C354.189 325.575 354.446 325.153 354.801 324.86C355.155 324.567 355.626 324.421 356.212 324.421C356.765 324.421 357.221 324.567 357.579 324.86C357.94 325.15 358.207 325.57 358.38 326.12C358.556 326.667 358.643 327.326 358.643 328.098ZM354.952 328.098C354.952 328.7 354.991 329.203 355.069 329.606C355.151 330.01 355.284 330.313 355.47 330.515C355.655 330.713 355.903 330.812 356.212 330.812C356.521 330.812 356.768 330.713 356.954 330.515C357.14 330.316 357.273 330.015 357.354 329.611C357.439 329.208 357.481 328.703 357.481 328.098C357.481 327.499 357.441 326.997 357.359 326.594C357.278 326.19 357.144 325.887 356.959 325.686C356.773 325.48 356.524 325.378 356.212 325.378C355.899 325.378 355.65 325.48 355.465 325.686C355.282 325.887 355.151 326.19 355.069 326.594C354.991 326.997 354.952 327.499 354.952 328.098ZM366.949 331.672H365.792V327.165H364.293C364.228 327.985 364.146 328.687 364.049 329.27C363.951 329.852 363.829 330.327 363.682 330.695C363.536 331.06 363.355 331.327 363.14 331.496C362.926 331.665 362.667 331.75 362.364 331.75C362.231 331.75 362.11 331.74 362.003 331.721C361.895 331.704 361.799 331.678 361.715 331.643V330.739C361.77 330.759 361.83 330.775 361.895 330.788C361.96 330.801 362.027 330.808 362.096 330.808C362.216 330.808 362.327 330.759 362.428 330.661C362.532 330.56 362.628 330.402 362.716 330.188C362.804 329.973 362.883 329.689 362.955 329.338C363.027 328.983 363.092 328.553 363.15 328.049C363.209 327.541 363.261 326.947 363.306 326.267H366.949V331.672ZM370.748 326.164C371.23 326.164 371.643 326.263 371.988 326.462C372.333 326.66 372.598 326.942 372.784 327.307C372.97 327.671 373.062 328.107 373.062 328.615V329.23H369.454C369.467 329.755 369.607 330.158 369.874 330.441C370.144 330.725 370.522 330.866 371.007 330.866C371.352 330.866 371.661 330.834 371.934 330.769C372.211 330.7 372.496 330.601 372.789 330.471V331.403C372.519 331.53 372.244 331.623 371.964 331.682C371.684 331.74 371.348 331.77 370.958 331.77C370.427 331.77 369.96 331.667 369.556 331.462C369.156 331.254 368.842 330.944 368.614 330.534C368.39 330.124 368.277 329.615 368.277 329.006C368.277 328.4 368.38 327.886 368.585 327.463C368.79 327.04 369.078 326.717 369.449 326.496C369.82 326.275 370.253 326.164 370.748 326.164ZM370.748 327.028C370.387 327.028 370.094 327.146 369.869 327.38C369.648 327.614 369.517 327.958 369.478 328.41H371.939C371.936 328.14 371.89 327.901 371.803 327.692C371.718 327.484 371.588 327.321 371.412 327.204C371.239 327.087 371.018 327.028 370.748 327.028ZM378.438 327.17H376.661V331.672H375.518V327.17H373.751V326.267H378.438V327.17Z" fill="#5A5A5A"/>
<circle cx="390.261" cy="198.037" r="4.66992" fill="#D04741"/>
<path d="M407.219 200.585H406.252V202.152H405.12V200.585H401.873V199.716L405.134 194.994H406.252V199.633H407.219V200.585ZM405.12 199.633V197.86C405.12 197.714 405.121 197.566 405.125 197.416C405.131 197.263 405.138 197.117 405.144 196.977C405.151 196.837 405.157 196.708 405.164 196.591C405.17 196.47 405.175 196.371 405.178 196.293H405.139C405.077 196.423 405.009 196.557 404.934 196.693C404.859 196.827 404.779 196.957 404.695 197.084L402.937 199.633H405.12ZM412.683 198.578C412.683 199.154 412.638 199.67 412.546 200.126C412.459 200.578 412.319 200.963 412.126 201.278C411.934 201.594 411.684 201.835 411.375 202.001C411.065 202.167 410.691 202.25 410.251 202.25C409.701 202.25 409.247 202.105 408.889 201.815C408.531 201.522 408.266 201.103 408.093 200.556C407.921 200.006 407.834 199.346 407.834 198.578C407.834 197.81 407.913 197.152 408.069 196.605C408.228 196.055 408.486 195.634 408.84 195.341C409.195 195.048 409.666 194.901 410.251 194.901C410.805 194.901 411.261 195.048 411.619 195.341C411.98 195.631 412.247 196.05 412.419 196.601C412.595 197.147 412.683 197.807 412.683 198.578ZM408.992 198.578C408.992 199.18 409.031 199.683 409.109 200.087C409.19 200.491 409.324 200.793 409.509 200.995C409.695 201.194 409.942 201.293 410.251 201.293C410.561 201.293 410.808 201.194 410.994 200.995C411.179 200.797 411.313 200.495 411.394 200.092C411.479 199.688 411.521 199.184 411.521 198.578C411.521 197.979 411.48 197.478 411.399 197.074C411.318 196.671 411.184 196.368 410.999 196.166C410.813 195.961 410.564 195.858 410.251 195.858C409.939 195.858 409.69 195.961 409.504 196.166C409.322 196.368 409.19 196.671 409.109 197.074C409.031 197.478 408.992 197.979 408.992 198.578ZM420.989 202.152H419.832V197.646H418.333C418.267 198.466 418.186 199.167 418.088 199.75C417.991 200.333 417.869 200.808 417.722 201.176C417.576 201.54 417.395 201.807 417.18 201.977C416.965 202.146 416.707 202.23 416.404 202.23C416.27 202.23 416.15 202.221 416.042 202.201C415.935 202.185 415.839 202.159 415.754 202.123V201.22C415.81 201.239 415.87 201.256 415.935 201.269C416 201.282 416.067 201.288 416.135 201.288C416.256 201.288 416.366 201.239 416.467 201.142C416.571 201.041 416.667 200.883 416.755 200.668C416.843 200.453 416.923 200.17 416.995 199.818C417.066 199.464 417.131 199.034 417.19 198.529C417.249 198.021 417.301 197.427 417.346 196.747H420.989V202.152ZM424.788 196.645C425.269 196.645 425.683 196.744 426.028 196.942C426.373 197.141 426.638 197.423 426.824 197.787C427.009 198.152 427.102 198.588 427.102 199.096V199.711H423.494C423.507 200.235 423.647 200.639 423.914 200.922C424.184 201.205 424.561 201.347 425.046 201.347C425.391 201.347 425.701 201.314 425.974 201.249C426.251 201.181 426.536 201.081 426.829 200.951V201.884C426.558 202.011 426.283 202.104 426.003 202.162C425.723 202.221 425.388 202.25 424.998 202.25C424.467 202.25 424 202.147 423.596 201.942C423.196 201.734 422.882 201.425 422.654 201.015C422.429 200.604 422.317 200.095 422.317 199.486C422.317 198.881 422.419 198.367 422.625 197.943C422.83 197.52 423.118 197.198 423.489 196.977C423.86 196.755 424.293 196.645 424.788 196.645ZM424.788 197.509C424.426 197.509 424.133 197.626 423.909 197.86C423.687 198.095 423.557 198.438 423.518 198.891H425.979C425.976 198.62 425.93 198.381 425.842 198.173C425.758 197.965 425.627 197.802 425.452 197.685C425.279 197.567 425.058 197.509 424.788 197.509ZM432.478 197.65H430.701V202.152H429.558V197.65H427.791V196.747H432.478V197.65Z" fill="#5A5A5A"/>
<circle cx="86.6333" cy="73.2637" r="4.66992" fill="#5A5A5A"/>
<path d="M54.4608 70.1641H53.3084V65.5693C53.3084 65.4163 53.3101 65.2633 53.3133 65.1104C53.3166 64.9574 53.3198 64.8076 53.3231 64.6611C53.3296 64.5146 53.3377 64.3747 53.3475 64.2412C53.2791 64.3161 53.1945 64.3975 53.0936 64.4854C52.9959 64.5732 52.8918 64.6644 52.7811 64.7588L51.9608 65.4131L51.3846 64.6855L53.5038 63.0254H54.4608V70.1641ZM61.6434 66.5898C61.6434 67.166 61.5978 67.682 61.5067 68.1377C61.4188 68.5902 61.2788 68.9743 61.0868 69.29C60.8947 69.6058 60.6441 69.8467 60.3348 70.0127C60.0256 70.1787 59.6512 70.2617 59.2118 70.2617C58.6616 70.2617 58.2075 70.1169 57.8495 69.8271C57.4914 69.5342 57.2261 69.1143 57.0536 68.5674C56.881 68.0173 56.7948 67.3581 56.7948 66.5898C56.7948 65.8216 56.8729 65.1641 57.0291 64.6172C57.1887 64.0671 57.4458 63.6455 57.8006 63.3525C58.1554 63.0596 58.6258 62.9131 59.2118 62.9131C59.7651 62.9131 60.2209 63.0596 60.579 63.3525C60.9403 63.6423 61.2072 64.0622 61.3797 64.6123C61.5555 65.1592 61.6434 65.8184 61.6434 66.5898ZM57.952 66.5898C57.952 67.1921 57.9911 67.695 58.0692 68.0986C58.1506 68.5023 58.284 68.805 58.4696 69.0068C58.6551 69.2054 58.9025 69.3047 59.2118 69.3047C59.521 69.3047 59.7684 69.2054 59.954 69.0068C60.1395 68.8083 60.273 68.5072 60.3543 68.1035C60.439 67.6999 60.4813 67.1953 60.4813 66.5898C60.4813 65.9909 60.4406 65.4896 60.3592 65.0859C60.2778 64.6823 60.1444 64.3796 59.9588 64.1777C59.7733 63.9727 59.5243 63.8701 59.2118 63.8701C58.8993 63.8701 58.6502 63.9727 58.4647 64.1777C58.2824 64.3796 58.1506 64.6823 58.0692 65.0859C57.9911 65.4896 57.952 65.9909 57.952 66.5898ZM69.9491 70.1641H68.7918V65.6572H67.2928C67.2277 66.4775 67.1463 67.179 67.0487 67.7617C66.951 68.3444 66.829 68.8197 66.6825 69.1875C66.536 69.5521 66.3553 69.819 66.1405 69.9883C65.9256 70.1576 65.6668 70.2422 65.3641 70.2422C65.2306 70.2422 65.1102 70.2324 65.0028 70.2129C64.8954 70.1966 64.7993 70.1706 64.7147 70.1348V69.2314C64.77 69.251 64.8303 69.2673 64.8954 69.2803C64.9605 69.2933 65.0272 69.2998 65.0956 69.2998C65.216 69.2998 65.3267 69.251 65.4276 69.1533C65.5318 69.0524 65.6278 68.8945 65.7157 68.6797C65.8036 68.4648 65.8833 68.1816 65.9549 67.8301C66.0265 67.4753 66.0916 67.0456 66.1502 66.541C66.2088 66.0332 66.2609 65.4391 66.3065 64.7588H69.9491V70.1641ZM73.7479 64.6562C74.2297 64.6562 74.6431 64.7555 74.9881 64.9541C75.3332 65.1527 75.5985 65.4342 75.784 65.7988C75.9696 66.1634 76.0623 66.5996 76.0623 67.1074V67.7227H72.454C72.467 68.2467 72.6069 68.6504 72.8739 68.9336C73.1441 69.2168 73.5217 69.3584 74.0067 69.3584C74.3517 69.3584 74.661 69.3258 74.9344 69.2607C75.2111 69.1924 75.4959 69.0931 75.7889 68.9629V69.8955C75.5187 70.0225 75.2437 70.1152 74.9637 70.1738C74.6838 70.2324 74.3485 70.2617 73.9579 70.2617C73.4273 70.2617 72.9601 70.1592 72.5565 69.9541C72.1561 69.7458 71.842 69.4365 71.6141 69.0264C71.3895 68.6162 71.2772 68.1068 71.2772 67.498C71.2772 66.8926 71.3797 66.3783 71.5848 65.9551C71.7899 65.5319 72.078 65.2096 72.4491 64.9883C72.8202 64.7669 73.2531 64.6562 73.7479 64.6562ZM73.7479 65.5205C73.3866 65.5205 73.0936 65.6377 72.869 65.8721C72.6476 66.1064 72.5174 66.4499 72.4784 66.9023H74.9393C74.936 66.6322 74.8905 66.3929 74.8026 66.1846C74.7179 65.9762 74.5877 65.8135 74.412 65.6963C74.2394 65.5791 74.0181 65.5205 73.7479 65.5205ZM81.4383 65.6621H79.661V70.1641H78.5184V65.6621H76.7508V64.7588H81.4383V65.6621Z" fill="#5A5A5A"/>
<circle cx="87.5278" cy="322.357" r="4.66992" fill="#5A5A5A"/>
<path d="M46.0944 331.672L48.8972 325.539H45.1911V324.533H50.1325V325.319L47.3298 331.672H46.0944ZM55.8356 328.098C55.8356 328.674 55.7901 329.19 55.6989 329.646C55.611 330.098 55.4711 330.482 55.279 330.798C55.0869 331.114 54.8363 331.354 54.5271 331.521C54.2178 331.687 53.8435 331.77 53.404 331.77C52.8539 331.77 52.3998 331.625 52.0417 331.335C51.6836 331.042 51.4183 330.622 51.2458 330.075C51.0733 329.525 50.987 328.866 50.987 328.098C50.987 327.329 51.0651 326.672 51.2214 326.125C51.3809 325.575 51.6381 325.153 51.9929 324.86C52.3477 324.567 52.8181 324.421 53.404 324.421C53.9574 324.421 54.4131 324.567 54.7712 324.86C55.1325 325.15 55.3994 325.57 55.572 326.12C55.7478 326.667 55.8356 327.326 55.8356 328.098ZM52.1442 328.098C52.1442 328.7 52.1833 329.203 52.2614 329.606C52.3428 330.01 52.4763 330.313 52.6618 330.515C52.8474 330.713 53.0948 330.812 53.404 330.812C53.7133 330.812 53.9606 330.713 54.1462 330.515C54.3317 330.316 54.4652 330.015 54.5466 329.611C54.6312 329.208 54.6735 328.703 54.6735 328.098C54.6735 327.499 54.6328 326.997 54.5515 326.594C54.4701 326.19 54.3366 325.887 54.1511 325.686C53.9655 325.48 53.7165 325.378 53.404 325.378C53.0915 325.378 52.8425 325.48 52.6569 325.686C52.4746 325.887 52.3428 326.19 52.2614 326.594C52.1833 326.997 52.1442 327.499 52.1442 328.098ZM64.1413 331.672H62.9841V327.165H61.4851C61.42 327.985 61.3386 328.687 61.2409 329.27C61.1433 329.852 61.0212 330.327 60.8747 330.695C60.7282 331.06 60.5476 331.327 60.3327 331.496C60.1179 331.665 59.8591 331.75 59.5564 331.75C59.4229 331.75 59.3024 331.74 59.195 331.721C59.0876 331.704 58.9916 331.678 58.9069 331.643V330.739C58.9623 330.759 59.0225 330.775 59.0876 330.788C59.1527 330.801 59.2194 330.808 59.2878 330.808C59.4082 330.808 59.5189 330.759 59.6198 330.661C59.724 330.56 59.82 330.402 59.9079 330.188C59.9958 329.973 60.0756 329.689 60.1472 329.338C60.2188 328.983 60.2839 328.553 60.3425 328.049C60.4011 327.541 60.4532 326.947 60.4987 326.267H64.1413V331.672ZM67.9401 326.164C68.4219 326.164 68.8353 326.263 69.1804 326.462C69.5254 326.66 69.7907 326.942 69.9763 327.307C70.1618 327.671 70.2546 328.107 70.2546 328.615V329.23H66.6462C66.6592 329.755 66.7992 330.158 67.0661 330.441C67.3363 330.725 67.7139 330.866 68.1989 330.866C68.544 330.866 68.8532 330.834 69.1267 330.769C69.4034 330.7 69.6882 330.601 69.9812 330.471V331.403C69.711 331.53 69.4359 331.623 69.156 331.682C68.876 331.74 68.5407 331.77 68.1501 331.77C67.6195 331.77 67.1524 331.667 66.7487 331.462C66.3483 331.254 66.0342 330.944 65.8064 330.534C65.5817 330.124 65.4694 329.615 65.4694 329.006C65.4694 328.4 65.572 327.886 65.7771 327.463C65.9821 327.04 66.2702 326.717 66.6413 326.496C67.0124 326.275 67.4453 326.164 67.9401 326.164ZM67.9401 327.028C67.5788 327.028 67.2858 327.146 67.0612 327.38C66.8399 327.614 66.7097 327.958 66.6706 328.41H69.1315C69.1283 328.14 69.0827 327.901 68.9948 327.692C68.9102 327.484 68.78 327.321 68.6042 327.204C68.4317 327.087 68.2103 327.028 67.9401 327.028ZM75.6306 327.17H73.8532V331.672H72.7106V327.17H70.9431V326.267H75.6306V327.17Z" fill="#5A5A5A"/>
<circle cx="259.428" cy="244.297" r="7.39508" stroke="#5A5A5A" stroke-width="3"/>
<circle cx="235.696" cy="268.555" r="7.39508" stroke="#5A5A5A" stroke-width="3"/>
<circle cx="282.524" cy="220.895" r="7.39508" stroke="#5A5A5A" stroke-width="3"/>
<circle cx="53.0059" cy="131.063" r="2.87597" fill="#5A5A5A"/>
<path d="M24.4162 130.615C24.8752 130.615 25.2788 130.698 25.6271 130.864C25.9787 131.027 26.2521 131.268 26.4475 131.587C26.6428 131.903 26.7404 132.29 26.7404 132.749C26.7404 133.25 26.6346 133.683 26.423 134.048C26.2115 134.409 25.9006 134.688 25.4904 134.883C25.0803 135.078 24.5806 135.176 23.9914 135.176C23.6171 135.176 23.2671 135.143 22.9416 135.078C22.6193 135.013 22.341 134.915 22.1066 134.785V133.75C22.3508 133.887 22.6437 133.999 22.9855 134.087C23.3273 134.172 23.6545 134.214 23.967 134.214C24.299 134.214 24.5838 134.165 24.8215 134.067C25.0591 133.97 25.2414 133.82 25.3684 133.618C25.4986 133.416 25.5637 133.161 25.5637 132.852C25.5637 132.441 25.4318 132.126 25.1682 131.904C24.9077 131.68 24.4992 131.567 23.9426 131.567C23.7473 131.567 23.5389 131.585 23.3176 131.621C23.0995 131.654 22.9172 131.689 22.7707 131.729L22.2678 131.431L22.5363 127.939H26.2473V128.95H23.5471L23.3908 130.728C23.508 130.701 23.648 130.677 23.8107 130.654C23.9735 130.628 24.1753 130.615 24.4162 130.615ZM35.1291 135.078H33.9719V130.571H32.4728C32.4077 131.392 32.3264 132.093 32.2287 132.676C32.1311 133.258 32.009 133.734 31.8625 134.102C31.716 134.466 31.5353 134.733 31.3205 134.902C31.1057 135.072 30.8469 135.156 30.5441 135.156C30.4107 135.156 30.2902 135.146 30.1828 135.127C30.0754 135.111 29.9794 135.085 29.8947 135.049V134.146C29.9501 134.165 30.0103 134.181 30.0754 134.194C30.1405 134.207 30.2072 134.214 30.2756 134.214C30.396 134.214 30.5067 134.165 30.6076 134.067C30.7118 133.966 30.8078 133.809 30.8957 133.594C30.9836 133.379 31.0633 133.096 31.135 132.744C31.2066 132.389 31.2717 131.96 31.3303 131.455C31.3889 130.947 31.4409 130.353 31.4865 129.673H35.1291V135.078ZM38.9279 129.57C39.4097 129.57 39.8231 129.67 40.1682 129.868C40.5132 130.067 40.7785 130.348 40.9641 130.713C41.1496 131.077 41.2424 131.514 41.2424 132.021V132.637H37.634C37.647 133.161 37.787 133.564 38.0539 133.848C38.3241 134.131 38.7017 134.272 39.1867 134.272C39.5318 134.272 39.841 134.24 40.1144 134.175C40.3911 134.106 40.676 134.007 40.9689 133.877V134.81C40.6988 134.937 40.4237 135.029 40.1437 135.088C39.8638 135.146 39.5285 135.176 39.1379 135.176C38.6073 135.176 38.1402 135.073 37.7365 134.868C37.3361 134.66 37.022 134.351 36.7941 133.94C36.5695 133.53 36.4572 133.021 36.4572 132.412C36.4572 131.807 36.5598 131.292 36.7648 130.869C36.9699 130.446 37.258 130.124 37.6291 129.902C38.0002 129.681 38.4331 129.57 38.9279 129.57ZM38.9279 130.435C38.5666 130.435 38.2736 130.552 38.049 130.786C37.8277 131.021 37.6975 131.364 37.6584 131.816H40.1193C40.1161 131.546 40.0705 131.307 39.9826 131.099C39.898 130.89 39.7678 130.728 39.592 130.61C39.4195 130.493 39.1981 130.435 38.9279 130.435ZM46.6184 130.576H44.841V135.078H43.6984V130.576H41.9309V129.673H46.6184V130.576Z" fill="#5A5A5A"/>
<circle cx="53.8252" cy="263.36" r="2.87597" fill="#5A5A5A"/>
<path d="M18.7236 270.66L21.5263 264.527H17.8203V263.521H22.7617V264.308L19.959 270.66H18.7236ZM26.0576 266.197C26.5166 266.197 26.9202 266.28 27.2685 266.446C27.6201 266.609 27.8935 266.85 28.0888 267.169C28.2842 267.485 28.3818 267.872 28.3818 268.331C28.3818 268.832 28.276 269.265 28.0644 269.63C27.8528 269.991 27.542 270.27 27.1318 270.465C26.7217 270.66 26.222 270.758 25.6328 270.758C25.2584 270.758 24.9085 270.725 24.583 270.66C24.2607 270.595 23.9824 270.497 23.748 270.367V269.332C23.9922 269.469 24.2851 269.581 24.6269 269.669C24.9687 269.754 25.2959 269.796 25.6084 269.796C25.9404 269.796 26.2252 269.747 26.4629 269.649C26.7005 269.552 26.8828 269.402 27.0097 269.2C27.1399 268.998 27.2051 268.743 27.2051 268.434C27.2051 268.023 27.0732 267.708 26.8095 267.486C26.5491 267.262 26.1406 267.149 25.584 267.149C25.3886 267.149 25.1803 267.167 24.959 267.203C24.7409 267.236 24.5586 267.271 24.4121 267.311L23.9092 267.013L24.1777 263.521H27.8886V264.532H25.1884L25.0322 266.31C25.1494 266.284 25.2894 266.259 25.4521 266.236C25.6149 266.21 25.8167 266.197 26.0576 266.197ZM36.7705 270.66H35.6133V266.153H34.1142C34.0491 266.974 33.9677 267.675 33.8701 268.258C33.7724 268.84 33.6504 269.316 33.5039 269.684C33.3574 270.048 33.1767 270.315 32.9619 270.484C32.747 270.654 32.4883 270.738 32.1855 270.738C32.0521 270.738 31.9316 270.729 31.8242 270.709C31.7168 270.693 31.6207 270.667 31.5361 270.631V269.728C31.5914 269.747 31.6517 269.763 31.7168 269.776C31.7819 269.789 31.8486 269.796 31.917 269.796C32.0374 269.796 32.1481 269.747 32.249 269.649C32.3532 269.549 32.4492 269.391 32.5371 269.176C32.625 268.961 32.7047 268.678 32.7763 268.326C32.848 267.971 32.9131 267.542 32.9717 267.037C33.0302 266.529 33.0823 265.935 33.1279 265.255H36.7705V270.66ZM40.5693 265.152C41.0511 265.152 41.4645 265.252 41.8095 265.45C42.1546 265.649 42.4199 265.93 42.6054 266.295C42.791 266.66 42.8838 267.096 42.8838 267.604V268.219H39.2754C39.2884 268.743 39.4284 269.146 39.6953 269.43C39.9655 269.713 40.3431 269.854 40.8281 269.854C41.1732 269.854 41.4824 269.822 41.7558 269.757C42.0325 269.688 42.3174 269.589 42.6103 269.459V270.392C42.3401 270.519 42.0651 270.611 41.7851 270.67C41.5052 270.729 41.1699 270.758 40.7793 270.758C40.2487 270.758 39.7815 270.655 39.3779 270.45C38.9775 270.242 38.6634 269.933 38.4355 269.522C38.2109 269.112 38.0986 268.603 38.0986 267.994C38.0986 267.389 38.2011 266.874 38.4062 266.451C38.6113 266.028 38.8994 265.706 39.2705 265.484C39.6416 265.263 40.0745 265.152 40.5693 265.152ZM40.5693 266.017C40.208 266.017 39.915 266.134 39.6904 266.368C39.469 266.603 39.3388 266.946 39.2998 267.398H41.7607C41.7575 267.128 41.7119 266.889 41.624 266.681C41.5394 266.472 41.4092 266.31 41.2334 266.192C41.0608 266.075 40.8395 266.017 40.5693 266.017ZM48.2597 266.158H46.4824V270.66H45.3398V266.158H43.5722V265.255H48.2597V266.158Z" fill="#5A5A5A"/>
<circle cx="372.843" cy="130.235" r="2.87597" fill="#5A5A5A"/>
<path d="M382.664 127.727C382.664 128.049 382.599 128.329 382.468 128.566C382.338 128.804 382.159 128.999 381.931 129.152C381.707 129.302 381.446 129.41 381.15 129.475V129.509C381.72 129.58 382.149 129.759 382.439 130.046C382.732 130.332 382.879 130.712 382.879 131.184C382.879 131.597 382.779 131.966 382.581 132.292C382.382 132.614 382.078 132.868 381.668 133.054C381.258 133.239 380.73 133.332 380.086 133.332C379.698 133.332 379.339 133.301 379.007 133.239C378.678 133.177 378.365 133.078 378.069 132.941V131.921C378.372 132.071 378.694 132.186 379.036 132.268C379.378 132.349 379.702 132.39 380.008 132.39C380.603 132.39 381.028 132.279 381.282 132.058C381.536 131.833 381.663 131.524 381.663 131.13C381.663 130.876 381.596 130.668 381.463 130.505C381.332 130.342 381.129 130.22 380.852 130.139C380.579 130.057 380.226 130.017 379.793 130.017H379.163V129.094H379.798C380.211 129.094 380.543 129.045 380.794 128.947C381.044 128.846 381.225 128.708 381.336 128.532C381.45 128.356 381.507 128.151 381.507 127.917C381.507 127.611 381.407 127.373 381.209 127.204C381.01 127.032 380.716 126.945 380.325 126.945C380.084 126.945 379.864 126.973 379.666 127.028C379.47 127.084 379.29 127.154 379.124 127.238C378.958 127.323 378.8 127.414 378.65 127.512L378.098 126.716C378.369 126.514 378.691 126.343 379.065 126.203C379.439 126.063 379.876 125.993 380.374 125.993C381.106 125.993 381.671 126.151 382.068 126.467C382.465 126.779 382.664 127.199 382.664 127.727ZM386.253 128.771C386.712 128.771 387.115 128.854 387.464 129.021C387.815 129.183 388.089 129.424 388.284 129.743C388.479 130.059 388.577 130.446 388.577 130.905C388.577 131.407 388.471 131.84 388.259 132.204C388.048 132.565 387.737 132.844 387.327 133.039C386.917 133.234 386.417 133.332 385.828 133.332C385.453 133.332 385.104 133.299 384.778 133.234C384.456 133.169 384.177 133.072 383.943 132.941V131.906C384.187 132.043 384.48 132.155 384.822 132.243C385.164 132.328 385.491 132.37 385.803 132.37C386.135 132.37 386.42 132.321 386.658 132.224C386.896 132.126 387.078 131.976 387.205 131.774C387.335 131.573 387.4 131.317 387.4 131.008C387.4 130.598 387.268 130.282 387.005 130.061C386.744 129.836 386.336 129.724 385.779 129.724C385.584 129.724 385.375 129.742 385.154 129.777C384.936 129.81 384.754 129.846 384.607 129.885L384.104 129.587L384.373 126.096H388.084V127.106H385.383L385.227 128.884C385.344 128.858 385.484 128.833 385.647 128.811C385.81 128.785 386.012 128.771 386.253 128.771ZM396.966 133.234H395.808V128.728H394.309C394.244 129.548 394.163 130.249 394.065 130.832C393.967 131.415 393.845 131.89 393.699 132.258C393.552 132.622 393.372 132.889 393.157 133.059C392.942 133.228 392.683 133.312 392.381 133.312C392.247 133.312 392.127 133.303 392.019 133.283C391.912 133.267 391.816 133.241 391.731 133.205V132.302C391.786 132.321 391.847 132.338 391.912 132.351C391.977 132.364 392.044 132.37 392.112 132.37C392.232 132.37 392.343 132.321 392.444 132.224C392.548 132.123 392.644 131.965 392.732 131.75C392.82 131.535 392.9 131.252 392.971 130.9C393.043 130.546 393.108 130.116 393.167 129.611C393.225 129.104 393.277 128.509 393.323 127.829H396.966V133.234ZM400.764 127.727C401.246 127.727 401.66 127.826 402.005 128.024C402.35 128.223 402.615 128.505 402.8 128.869C402.986 129.234 403.079 129.67 403.079 130.178V130.793H399.47C399.483 131.317 399.623 131.721 399.89 132.004C400.161 132.287 400.538 132.429 401.023 132.429C401.368 132.429 401.677 132.396 401.951 132.331C402.228 132.263 402.512 132.163 402.805 132.033V132.966C402.535 133.093 402.26 133.186 401.98 133.244C401.7 133.303 401.365 133.332 400.974 133.332C400.444 133.332 399.977 133.229 399.573 133.024C399.173 132.816 398.858 132.507 398.631 132.097C398.406 131.687 398.294 131.177 398.294 130.568C398.294 129.963 398.396 129.449 398.601 129.025C398.806 128.602 399.094 128.28 399.466 128.059C399.837 127.837 400.27 127.727 400.764 127.727ZM400.764 128.591C400.403 128.591 400.11 128.708 399.885 128.942C399.664 129.177 399.534 129.52 399.495 129.973H401.956C401.952 129.702 401.907 129.463 401.819 129.255C401.734 129.047 401.604 128.884 401.428 128.767C401.256 128.649 401.035 128.591 400.764 128.591ZM408.455 128.732H406.677V133.234H405.535V128.732H403.767V127.829H408.455V128.732Z" fill="#5A5A5A"/>
<circle cx="371.825" cy="264.177" r="2.87597" fill="#5A5A5A"/>
<path d="M380.005 269.093H379.038V270.66H377.906V269.093H374.659V268.224L377.92 263.502H379.038V268.141H380.005V269.093ZM377.906 268.141V266.368C377.906 266.222 377.907 266.074 377.91 265.924C377.917 265.771 377.923 265.624 377.93 265.484C377.937 265.344 377.943 265.216 377.95 265.099C377.956 264.978 377.961 264.879 377.964 264.801H377.925C377.863 264.931 377.795 265.064 377.72 265.201C377.645 265.335 377.565 265.465 377.481 265.592L375.723 268.141H377.906ZM383.062 266.197C383.521 266.197 383.924 266.28 384.273 266.446C384.624 266.609 384.898 266.85 385.093 267.169C385.288 267.485 385.386 267.872 385.386 268.331C385.386 268.832 385.28 269.265 385.069 269.63C384.857 269.991 384.546 270.27 384.136 270.465C383.726 270.66 383.226 270.758 382.637 270.758C382.263 270.758 381.913 270.725 381.587 270.66C381.265 270.595 380.987 270.497 380.752 270.367V269.332C380.996 269.469 381.289 269.581 381.631 269.669C381.973 269.754 382.3 269.796 382.613 269.796C382.945 269.796 383.229 269.747 383.467 269.649C383.705 269.552 383.887 269.402 384.014 269.2C384.144 268.998 384.209 268.743 384.209 268.434C384.209 268.023 384.077 267.708 383.814 267.486C383.553 267.262 383.145 267.149 382.588 267.149C382.393 267.149 382.185 267.167 381.963 267.203C381.745 267.236 381.563 267.271 381.416 267.311L380.913 267.013L381.182 263.521H384.893V264.532H382.193L382.036 266.31C382.154 266.284 382.294 266.259 382.456 266.236C382.619 266.21 382.821 266.197 383.062 266.197ZM393.775 270.66H392.617V266.153H391.118C391.053 266.974 390.972 267.675 390.874 268.258C390.777 268.84 390.655 269.316 390.508 269.684C390.362 270.048 390.181 270.315 389.966 270.484C389.751 270.654 389.492 270.738 389.19 270.738C389.056 270.738 388.936 270.729 388.828 270.709C388.721 270.693 388.625 270.667 388.54 270.631V269.728C388.596 269.747 388.656 269.763 388.721 269.776C388.786 269.789 388.853 269.796 388.921 269.796C389.042 269.796 389.152 269.747 389.253 269.649C389.357 269.549 389.453 269.391 389.541 269.176C389.629 268.961 389.709 268.678 389.781 268.326C389.852 267.971 389.917 267.542 389.976 267.037C390.034 266.529 390.087 265.935 390.132 265.255H393.775V270.66ZM397.574 265.152C398.055 265.152 398.469 265.252 398.814 265.45C399.159 265.649 399.424 265.93 399.61 266.295C399.795 266.66 399.888 267.096 399.888 267.604V268.219H396.28C396.293 268.743 396.433 269.146 396.7 269.43C396.97 269.713 397.347 269.854 397.832 269.854C398.177 269.854 398.487 269.822 398.76 269.757C399.037 269.688 399.322 269.589 399.615 269.459V270.392C399.344 270.519 399.069 270.611 398.789 270.67C398.509 270.729 398.174 270.758 397.784 270.758C397.253 270.758 396.786 270.655 396.382 270.45C395.982 270.242 395.668 269.933 395.44 269.522C395.215 269.112 395.103 268.603 395.103 267.994C395.103 267.389 395.205 266.874 395.41 266.451C395.616 266.028 395.904 265.706 396.275 265.484C396.646 265.263 397.079 265.152 397.574 265.152ZM397.574 266.017C397.212 266.017 396.919 266.134 396.695 266.368C396.473 266.603 396.343 266.946 396.304 267.398H398.765C398.762 267.128 398.716 266.889 398.628 266.681C398.544 266.472 398.413 266.31 398.238 266.192C398.065 266.075 397.844 266.017 397.574 266.017ZM405.264 266.158H403.487V270.66H402.344V266.158H400.576V265.255H405.264V266.158Z" fill="#5A5A5A"/>
<circle cx="144.533" cy="39.0045" r="2.66852" fill="#5A5A5A"/>
<path d="M114.865 35.2344H113.713V30.6396C113.713 30.4867 113.715 30.3337 113.718 30.1807C113.721 30.0277 113.724 29.8779 113.728 29.7314C113.734 29.585 113.742 29.445 113.752 29.3115C113.684 29.3864 113.599 29.4678 113.498 29.5557C113.4 29.6436 113.296 29.7347 113.186 29.8291L112.365 30.4834L111.789 29.7559L113.908 28.0957H114.865V35.2344ZM119.641 30.7715C120.1 30.7715 120.503 30.8545 120.852 31.0205C121.203 31.1833 121.477 31.4242 121.672 31.7432C121.867 32.0589 121.965 32.4463 121.965 32.9053C121.965 33.4066 121.859 33.8395 121.647 34.2041C121.436 34.5654 121.125 34.8438 120.715 35.0391C120.305 35.2344 119.805 35.332 119.216 35.332C118.841 35.332 118.492 35.2995 118.166 35.2344C117.844 35.1693 117.565 35.0716 117.331 34.9414V33.9062C117.575 34.043 117.868 34.1553 118.21 34.2432C118.552 34.3278 118.879 34.3701 119.191 34.3701C119.523 34.3701 119.808 34.3213 120.046 34.2236C120.284 34.126 120.466 33.9762 120.593 33.7744C120.723 33.5726 120.788 33.3171 120.788 33.0078C120.788 32.5977 120.656 32.2819 120.393 32.0605C120.132 31.8359 119.724 31.7236 119.167 31.7236C118.972 31.7236 118.763 31.7415 118.542 31.7773C118.324 31.8099 118.142 31.8457 117.995 31.8848L117.492 31.5869L117.761 28.0957H121.472V29.1064H118.771L118.615 30.8838C118.732 30.8577 118.872 30.8333 119.035 30.8105C119.198 30.7845 119.4 30.7715 119.641 30.7715ZM130.354 35.2344H129.196V30.7275H127.697C127.632 31.5479 127.551 32.2493 127.453 32.832C127.355 33.4147 127.233 33.89 127.087 34.2578C126.94 34.6224 126.76 34.8893 126.545 35.0586C126.33 35.2279 126.071 35.3125 125.769 35.3125C125.635 35.3125 125.515 35.3027 125.407 35.2832C125.3 35.2669 125.204 35.2409 125.119 35.2051V34.3018C125.174 34.3213 125.235 34.3376 125.3 34.3506C125.365 34.3636 125.432 34.3701 125.5 34.3701C125.62 34.3701 125.731 34.3213 125.832 34.2236C125.936 34.1227 126.032 33.9648 126.12 33.75C126.208 33.5352 126.288 33.252 126.359 32.9004C126.431 32.5456 126.496 32.1159 126.555 31.6113C126.613 31.1035 126.665 30.5094 126.711 29.8291H130.354V35.2344ZM134.152 29.7266C134.634 29.7266 135.048 29.8258 135.393 30.0244C135.738 30.223 136.003 30.5046 136.188 30.8691C136.374 31.2337 136.467 31.6699 136.467 32.1777V32.793H132.858C132.871 33.3171 133.011 33.7207 133.278 34.0039C133.549 34.2871 133.926 34.4287 134.411 34.4287C134.756 34.4287 135.065 34.3962 135.339 34.3311C135.616 34.2627 135.9 34.1634 136.193 34.0332V34.9658C135.923 35.0928 135.648 35.1855 135.368 35.2441C135.088 35.3027 134.753 35.332 134.362 35.332C133.832 35.332 133.365 35.2295 132.961 35.0244C132.561 34.8161 132.246 34.5068 132.019 34.0967C131.794 33.6865 131.682 33.1771 131.682 32.5684C131.682 31.9629 131.784 31.4486 131.989 31.0254C132.194 30.6022 132.482 30.2799 132.854 30.0586C133.225 29.8372 133.658 29.7266 134.152 29.7266ZM134.152 30.5908C133.791 30.5908 133.498 30.708 133.273 30.9424C133.052 31.1768 132.922 31.5202 132.883 31.9727H135.344C135.34 31.7025 135.295 31.4632 135.207 31.2549C135.122 31.0465 134.992 30.8838 134.816 30.7666C134.644 30.6494 134.423 30.5908 134.152 30.5908ZM141.843 30.7324H140.065V35.2344H138.923V30.7324H137.155V29.8291H141.843V30.7324Z" fill="#5A5A5A"/>
<circle cx="145.033" cy="355.384" r="2.87597" fill="#5A5A5A"/>
<path d="M113.236 367.048C113.236 366.628 113.266 366.215 113.324 365.808C113.386 365.401 113.49 365.02 113.637 364.665C113.783 364.31 113.985 363.998 114.242 363.728C114.503 363.457 114.83 363.246 115.224 363.093C115.617 362.937 116.091 362.858 116.645 362.858C116.788 362.858 116.949 362.865 117.128 362.878C117.307 362.891 117.455 362.912 117.572 362.941V363.894C117.445 363.858 117.305 363.83 117.152 363.811C117.003 363.791 116.853 363.781 116.703 363.781C116.104 363.781 115.637 363.895 115.302 364.123C114.966 364.348 114.727 364.657 114.584 365.051C114.441 365.441 114.358 365.889 114.335 366.394H114.394C114.491 366.231 114.613 366.086 114.76 365.959C114.906 365.832 115.085 365.731 115.297 365.656C115.508 365.578 115.754 365.539 116.034 365.539C116.451 365.539 116.814 365.627 117.123 365.803C117.432 365.975 117.67 366.226 117.836 366.555C118.005 366.883 118.09 367.282 118.09 367.751C118.09 368.256 117.994 368.69 117.802 369.055C117.613 369.419 117.343 369.699 116.991 369.895C116.643 370.09 116.228 370.188 115.746 370.188C115.391 370.188 115.061 370.122 114.755 369.992C114.452 369.862 114.187 369.667 113.959 369.406C113.731 369.146 113.554 368.82 113.427 368.43C113.3 368.036 113.236 367.575 113.236 367.048ZM115.727 369.24C116.098 369.24 116.395 369.12 116.62 368.879C116.848 368.635 116.962 368.262 116.962 367.761C116.962 367.354 116.861 367.032 116.659 366.794C116.461 366.556 116.161 366.438 115.761 366.438C115.487 366.438 115.248 366.496 115.043 366.613C114.838 366.73 114.678 366.879 114.564 367.058C114.454 367.237 114.398 367.419 114.398 367.604C114.398 367.793 114.426 367.984 114.481 368.176C114.537 368.368 114.62 368.545 114.73 368.708C114.841 368.868 114.979 368.996 115.145 369.094C115.311 369.191 115.505 369.24 115.727 369.24ZM121.376 365.627C121.835 365.627 122.239 365.71 122.587 365.876C122.938 366.039 123.212 366.28 123.407 366.599C123.603 366.914 123.7 367.302 123.7 367.761C123.7 368.262 123.594 368.695 123.383 369.06C123.171 369.421 122.86 369.699 122.45 369.895C122.04 370.09 121.54 370.188 120.951 370.188C120.577 370.188 120.227 370.155 119.901 370.09C119.579 370.025 119.301 369.927 119.066 369.797V368.762C119.311 368.898 119.603 369.011 119.945 369.099C120.287 369.183 120.614 369.226 120.927 369.226C121.259 369.226 121.544 369.177 121.781 369.079C122.019 368.981 122.201 368.832 122.328 368.63C122.458 368.428 122.523 368.173 122.523 367.863C122.523 367.453 122.392 367.137 122.128 366.916C121.867 366.691 121.459 366.579 120.902 366.579C120.707 366.579 120.499 366.597 120.277 366.633C120.059 366.665 119.877 366.701 119.73 366.74L119.228 366.442L119.496 362.951H123.207V363.962H120.507L120.351 365.739C120.468 365.713 120.608 365.689 120.77 365.666C120.933 365.64 121.135 365.627 121.376 365.627ZM132.089 370.09H130.932V365.583H129.433C129.367 366.403 129.286 367.105 129.188 367.688C129.091 368.27 128.969 368.745 128.822 369.113C128.676 369.478 128.495 369.745 128.28 369.914C128.065 370.083 127.807 370.168 127.504 370.168C127.37 370.168 127.25 370.158 127.143 370.139C127.035 370.122 126.939 370.096 126.854 370.061V369.157C126.91 369.177 126.97 369.193 127.035 369.206C127.1 369.219 127.167 369.226 127.235 369.226C127.356 369.226 127.466 369.177 127.567 369.079C127.672 368.978 127.768 368.82 127.855 368.605C127.943 368.391 128.023 368.107 128.095 367.756C128.166 367.401 128.231 366.971 128.29 366.467C128.349 365.959 128.401 365.365 128.446 364.685H132.089V370.09ZM135.888 364.582C136.369 364.582 136.783 364.681 137.128 364.88C137.473 365.078 137.738 365.36 137.924 365.725C138.109 366.089 138.202 366.525 138.202 367.033V367.648H134.594C134.607 368.173 134.747 368.576 135.014 368.859C135.284 369.143 135.661 369.284 136.146 369.284C136.492 369.284 136.801 369.252 137.074 369.187C137.351 369.118 137.636 369.019 137.929 368.889V369.821C137.659 369.948 137.383 370.041 137.103 370.1C136.824 370.158 136.488 370.188 136.098 370.188C135.567 370.188 135.1 370.085 134.696 369.88C134.296 369.672 133.982 369.362 133.754 368.952C133.529 368.542 133.417 368.033 133.417 367.424C133.417 366.818 133.52 366.304 133.725 365.881C133.93 365.458 134.218 365.135 134.589 364.914C134.96 364.693 135.393 364.582 135.888 364.582ZM135.888 365.446C135.526 365.446 135.233 365.563 135.009 365.798C134.787 366.032 134.657 366.376 134.618 366.828H137.079C137.076 366.558 137.03 366.319 136.942 366.11C136.858 365.902 136.728 365.739 136.552 365.622C136.379 365.505 136.158 365.446 135.888 365.446ZM143.578 365.588H141.801V370.09H140.658V365.588H138.891V364.685H143.578V365.588Z" fill="#5A5A5A"/>
<circle cx="279.816" cy="38.6412" r="2.66852" fill="#5A5A5A"/>
<path d="M285.682 34.0078H280.848V33.1436L282.699 31.2686C283.057 30.904 283.351 30.5898 283.583 30.3262C283.814 30.0592 283.985 29.807 284.095 29.5693C284.209 29.3317 284.266 29.0729 284.266 28.793C284.266 28.4479 284.167 28.1875 283.968 28.0117C283.77 27.8327 283.508 27.7432 283.182 27.7432C282.873 27.7432 282.586 27.805 282.323 27.9287C282.062 28.0492 281.792 28.2217 281.512 28.4463L280.882 27.6895C281.081 27.5202 281.293 27.3656 281.517 27.2256C281.745 27.0856 281.999 26.9749 282.279 26.8936C282.559 26.8089 282.878 26.7666 283.236 26.7666C283.688 26.7666 284.079 26.848 284.408 27.0107C284.737 27.1702 284.989 27.3932 285.165 27.6797C285.344 27.9661 285.433 28.2998 285.433 28.6807C285.433 29.0648 285.357 29.4196 285.204 29.7451C285.051 30.0706 284.833 30.3929 284.549 30.7119C284.266 31.0277 283.929 31.3711 283.539 31.7422L282.303 32.9482V33.002H285.682V34.0078ZM288.998 29.5449C289.457 29.5449 289.86 29.6279 290.209 29.7939C290.56 29.9567 290.834 30.1976 291.029 30.5166C291.224 30.8324 291.322 31.2197 291.322 31.6787C291.322 32.18 291.216 32.613 291.004 32.9775C290.793 33.3389 290.482 33.6172 290.072 33.8125C289.662 34.0078 289.162 34.1055 288.573 34.1055C288.198 34.1055 287.849 34.0729 287.523 34.0078C287.201 33.9427 286.922 33.8451 286.688 33.7148V32.6797C286.932 32.8164 287.225 32.9287 287.567 33.0166C287.909 33.1012 288.236 33.1436 288.548 33.1436C288.88 33.1436 289.165 33.0947 289.403 32.9971C289.641 32.8994 289.823 32.7497 289.95 32.5479C290.08 32.346 290.145 32.0905 290.145 31.7812C290.145 31.3711 290.013 31.0553 289.75 30.834C289.489 30.6094 289.081 30.4971 288.524 30.4971C288.329 30.4971 288.12 30.515 287.899 30.5508C287.681 30.5833 287.499 30.6191 287.352 30.6582L286.849 30.3604L287.118 26.8691H290.829V27.8799H288.128L287.972 29.6572C288.089 29.6312 288.229 29.6068 288.392 29.584C288.555 29.5579 288.757 29.5449 288.998 29.5449ZM299.71 34.0078H298.553V29.501H297.054C296.989 30.3213 296.908 31.0228 296.81 31.6055C296.712 32.1882 296.59 32.6634 296.444 33.0312C296.297 33.3958 296.117 33.6628 295.902 33.832C295.687 34.0013 295.428 34.0859 295.126 34.0859C294.992 34.0859 294.872 34.0762 294.764 34.0566C294.657 34.0404 294.561 34.0143 294.476 33.9785V33.0752C294.531 33.0947 294.592 33.111 294.657 33.124C294.722 33.137 294.789 33.1436 294.857 33.1436C294.977 33.1436 295.088 33.0947 295.189 32.9971C295.293 32.8962 295.389 32.7383 295.477 32.5234C295.565 32.3086 295.645 32.0254 295.716 31.6738C295.788 31.319 295.853 30.8893 295.912 30.3848C295.97 29.877 296.022 29.2829 296.068 28.6025H299.71V34.0078ZM303.509 28.5C303.991 28.5 304.405 28.5993 304.75 28.7979C305.095 28.9964 305.36 29.278 305.545 29.6426C305.731 30.0072 305.824 30.4434 305.824 30.9512V31.5664H302.215C302.228 32.0905 302.368 32.4941 302.635 32.7773C302.905 33.0605 303.283 33.2021 303.768 33.2021C304.113 33.2021 304.422 33.1696 304.696 33.1045C304.973 33.0361 305.257 32.9368 305.55 32.8066V33.7393C305.28 33.8662 305.005 33.959 304.725 34.0176C304.445 34.0762 304.11 34.1055 303.719 34.1055C303.189 34.1055 302.722 34.0029 302.318 33.7979C301.918 33.5895 301.603 33.2803 301.376 32.8701C301.151 32.46 301.039 31.9505 301.039 31.3418C301.039 30.7363 301.141 30.222 301.346 29.7988C301.551 29.3757 301.839 29.0534 302.21 28.832C302.582 28.6107 303.015 28.5 303.509 28.5ZM303.509 29.3643C303.148 29.3643 302.855 29.4814 302.63 29.7158C302.409 29.9502 302.279 30.2936 302.24 30.7461H304.701C304.697 30.4759 304.652 30.2367 304.564 30.0283C304.479 29.82 304.349 29.6572 304.173 29.54C304.001 29.4229 303.78 29.3643 303.509 29.3643ZM311.2 29.5059H309.422V34.0078H308.28V29.5059H306.512V28.6025H311.2V29.5059Z" fill="#5A5A5A"/>
<circle cx="280.61" cy="355.384" r="2.87597" fill="#5A5A5A"/>
<path d="M279.995 366.443C280.454 366.443 280.858 366.526 281.206 366.692C281.557 366.855 281.831 367.096 282.026 367.415C282.221 367.731 282.319 368.118 282.319 368.577C282.319 369.078 282.213 369.511 282.002 369.876C281.79 370.237 281.479 370.516 281.069 370.711C280.659 370.906 280.159 371.004 279.57 371.004C279.196 371.004 278.846 370.971 278.52 370.906C278.198 370.841 277.92 370.743 277.685 370.613V369.578C277.929 369.715 278.222 369.827 278.564 369.915C278.906 370 279.233 370.042 279.546 370.042C279.878 370.042 280.163 369.993 280.4 369.896C280.638 369.798 280.82 369.648 280.947 369.446C281.077 369.244 281.142 368.989 281.142 368.68C281.142 368.27 281.011 367.954 280.747 367.732C280.486 367.508 280.078 367.396 279.521 367.396C279.326 367.396 279.118 367.413 278.896 367.449C278.678 367.482 278.496 367.518 278.349 367.557L277.846 367.259L278.115 363.768H281.826V364.778H279.126L278.969 366.556C279.087 366.53 279.227 366.505 279.389 366.482C279.552 366.456 279.754 366.443 279.995 366.443ZM285.718 366.443C286.177 366.443 286.58 366.526 286.928 366.692C287.28 366.855 287.553 367.096 287.749 367.415C287.944 367.731 288.042 368.118 288.042 368.577C288.042 369.078 287.936 369.511 287.724 369.876C287.513 370.237 287.202 370.516 286.792 370.711C286.382 370.906 285.882 371.004 285.293 371.004C284.918 371.004 284.568 370.971 284.243 370.906C283.921 370.841 283.642 370.743 283.408 370.613V369.578C283.652 369.715 283.945 369.827 284.287 369.915C284.629 370 284.956 370.042 285.268 370.042C285.6 370.042 285.885 369.993 286.123 369.896C286.36 369.798 286.543 369.648 286.67 369.446C286.8 369.244 286.865 368.989 286.865 368.68C286.865 368.27 286.733 367.954 286.469 367.732C286.209 367.508 285.801 367.396 285.244 367.396C285.049 367.396 284.84 367.413 284.619 367.449C284.401 367.482 284.219 367.518 284.072 367.557L283.569 367.259L283.838 363.768H287.549V364.778H284.848L284.692 366.556C284.809 366.53 284.949 366.505 285.112 366.482C285.275 366.456 285.477 366.443 285.718 366.443ZM296.43 370.906H295.273V366.399H293.774C293.709 367.22 293.628 367.921 293.53 368.504C293.432 369.087 293.31 369.562 293.164 369.93C293.017 370.294 292.837 370.561 292.622 370.73C292.407 370.9 292.148 370.984 291.845 370.984C291.712 370.984 291.592 370.975 291.484 370.955C291.377 370.939 291.281 370.913 291.196 370.877V369.974C291.251 369.993 291.312 370.009 291.377 370.022C291.442 370.035 291.509 370.042 291.577 370.042C291.697 370.042 291.808 369.993 291.909 369.896C292.013 369.795 292.109 369.637 292.197 369.422C292.285 369.207 292.365 368.924 292.436 368.572C292.508 368.217 292.573 367.788 292.632 367.283C292.69 366.775 292.742 366.181 292.788 365.501H296.43V370.906ZM300.229 365.398C300.711 365.398 301.124 365.498 301.469 365.696C301.815 365.895 302.08 366.176 302.265 366.541C302.451 366.906 302.544 367.342 302.544 367.85V368.465H298.935C298.948 368.989 299.088 369.393 299.355 369.676C299.625 369.959 300.003 370.101 300.488 370.101C300.833 370.101 301.142 370.068 301.416 370.003C301.692 369.935 301.977 369.835 302.27 369.705V370.638C302 370.765 301.725 370.857 301.445 370.916C301.165 370.975 300.83 371.004 300.439 371.004C299.909 371.004 299.441 370.901 299.038 370.696C298.637 370.488 298.323 370.179 298.095 369.769C297.871 369.358 297.759 368.849 297.759 368.24C297.759 367.635 297.861 367.12 298.066 366.697C298.271 366.274 298.559 365.952 298.93 365.73C299.302 365.509 299.734 365.398 300.229 365.398ZM300.229 366.263C299.868 366.263 299.575 366.38 299.35 366.614C299.129 366.849 298.999 367.192 298.96 367.645H301.421C301.417 367.374 301.372 367.135 301.284 366.927C301.199 366.718 301.069 366.556 300.893 366.438C300.721 366.321 300.499 366.263 300.229 366.263ZM307.92 366.404H306.142V370.906H305V366.404H303.232V365.501H307.92V366.404Z" fill="#5A5A5A"/>
<circle cx="42.3845" cy="173.576" r="1.77902" fill="#5A5A5A"/>
<circle cx="49.5095" cy="142.892" r="1.77902" fill="#5A5A5A"/>
<circle cx="45.3361" cy="158.013" r="1.77902" fill="#5A5A5A"/>
<circle r="1.77902" transform="matrix(0 1 1 0 190.568 26.7009)" fill="#5A5A5A"/>
<circle r="1.77902" transform="matrix(0 1 1 0 159.884 33.6579)" fill="#5A5A5A"/>
<circle r="1.77902" transform="matrix(0 1 1 0 175.006 29.529)" fill="#5A5A5A"/>
<circle cx="190.568" cy="368.061" r="1.77902" transform="rotate(-90 190.568 368.061)" fill="#5A5A5A"/>
<circle cx="159.884" cy="361.104" r="1.77902" transform="rotate(-90 159.884 361.104)" fill="#5A5A5A"/>
<circle cx="175.006" cy="365.233" r="1.77902" transform="rotate(-90 175.006 365.233)" fill="#5A5A5A"/>
<circle cx="235.346" cy="26.7009" r="1.77902" transform="rotate(90 235.346 26.7009)" fill="#5A5A5A"/>
<circle cx="266.03" cy="33.6579" r="1.77902" transform="rotate(90 266.03 33.6579)" fill="#5A5A5A"/>
<circle cx="250.908" cy="29.529" r="1.77902" transform="rotate(90 250.908 29.529)" fill="#5A5A5A"/>
<circle r="1.77902" transform="matrix(0 -1 -1 0 235.346 368.061)" fill="#5A5A5A"/>
<circle r="1.77902" transform="matrix(0 -1 -1 0 266.03 361.104)" fill="#5A5A5A"/>
<circle r="1.77902" transform="matrix(0 -1 -1 0 250.908 365.233)" fill="#5A5A5A"/>
<circle cx="60.1223" cy="118.381" r="1.77902" fill="#5A5A5A"/>
<circle cx="79.1316" cy="89.2048" r="1.77902" fill="#5A5A5A"/>
<circle cx="68.7336" cy="103.67" r="1.77902" fill="#5A5A5A"/>
<circle cx="103.546" cy="64.3259" r="1.77902" fill="#5A5A5A"/>
<circle cx="132.576" cy="45.1696" r="1.77902" fill="#5A5A5A"/>
<circle cx="117.245" cy="54.3884" r="1.77902" fill="#5A5A5A"/>
<circle r="1.77902" transform="matrix(1 0 0 -1 103.546 330.44)" fill="#5A5A5A"/>
<circle r="1.77902" transform="matrix(1 0 0 -1 132.576 349.729)" fill="#5A5A5A"/>
<circle r="1.77902" transform="matrix(1 0 0 -1 117.245 340.694)" fill="#5A5A5A"/>
<circle r="1.77902" transform="matrix(-1 0 0 1 322.04 64.3259)" fill="#5A5A5A"/>
<circle r="1.77902" transform="matrix(-1 0 0 1 293.603 45.1696)" fill="#5A5A5A"/>
<circle r="1.77902" transform="matrix(-1 0 0 1 308.39 54.2556)" fill="#5A5A5A"/>
<circle cx="321.889" cy="330.744" r="1.77902" transform="rotate(-180 321.889 330.744)" fill="#5A5A5A"/>
<circle cx="293.62" cy="349.698" r="1.77902" transform="rotate(-180 293.62 349.698)" fill="#5A5A5A"/>
<circle cx="308.4" cy="340.823" r="1.77902" transform="rotate(-180 308.4 340.823)" fill="#5A5A5A"/>
<circle r="1.77902" transform="matrix(1 0 0 -1 59.6682 275.971)" fill="#5A5A5A"/>
<circle r="1.77902" transform="matrix(1 0 0 -1 78.6775 305.147)" fill="#5A5A5A"/>
<circle r="1.77902" transform="matrix(1 0 0 -1 68.2795 290.682)" fill="#5A5A5A"/>
<circle r="1.77902" transform="matrix(-1 0 0 1 365.818 118.381)" fill="#5A5A5A"/>
<circle r="1.77902" transform="matrix(-1 0 0 1 346.808 89.2048)" fill="#5A5A5A"/>
<circle r="1.77902" transform="matrix(-1 0 0 1 357.206 103.67)" fill="#5A5A5A"/>
<circle cx="365.319" cy="278.436" r="1.77902" transform="rotate(-180 365.319 278.436)" fill="#5A5A5A"/>
<circle cx="346.31" cy="307.612" r="1.77902" transform="rotate(-180 346.31 307.612)" fill="#5A5A5A"/>
<circle cx="356.708" cy="293.147" r="1.77902" transform="rotate(-180 356.708 293.147)" fill="#5A5A5A"/>
<circle r="1.77902" transform="matrix(1 0 0 -1 42.3845 221.385)" fill="#5A5A5A"/>
<circle r="1.77902" transform="matrix(1 0 0 -1 49.5095 252.069)" fill="#5A5A5A"/>
<circle r="1.77902" transform="matrix(1 0 0 -1 45.3361 236.948)" fill="#5A5A5A"/>
<circle r="1.77902" transform="matrix(-1 0 0 1 383.491 173.576)" fill="#5A5A5A"/>
<circle r="1.77902" transform="matrix(-1 0 0 1 376.366 142.892)" fill="#5A5A5A"/>
<circle r="1.77902" transform="matrix(-1 0 0 1 380.539 158.013)" fill="#5A5A5A"/>
<circle cx="384.305" cy="218.924" r="1.77902" transform="rotate(-180 384.305 218.924)" fill="#5A5A5A"/>
<circle cx="377.18" cy="249.608" r="1.77902" transform="rotate(-180 377.18 249.608)" fill="#5A5A5A"/>
<circle cx="381.353" cy="234.487" r="1.77902" transform="rotate(-180 381.353 234.487)" fill="#5A5A5A"/>
<circle cx="212.824" cy="197.215" r="172.058" stroke="#5A5A5A"/>
<circle cx="58.7556" cy="198.444" r="16.1667" stroke="#9D2D9D" stroke-width="3"/>
<circle cx="212.415" cy="351.279" r="16.845" stroke="#D1474B" stroke-width="3"/>
<circle cx="366.895" cy="198.444" r="16.1667" stroke="#D04741" stroke-width="3"/>
<path d="M231.049 43.1394C231.049 52.0357 223.659 59.3061 214.471 59.3061C205.283 59.3061 197.894 52.0357 197.894 43.1394C197.894 34.2431 205.283 26.9727 214.471 26.9727C223.659 26.9727 231.049 34.2431 231.049 43.1394Z" stroke="#973298" stroke-width="3"/>
<line x1="106.186" y1="203.785" x2="106.186" y2="288.421" stroke="#5A5A5A" stroke-width="2"/>
<line x1="106.186" y1="105.18" x2="106.186" y2="189.816" stroke="#5A5A5A" stroke-width="2"/>
<line x1="120.79" y1="90.207" x2="205.425" y2="90.207" stroke="#5A5A5A" stroke-width="2"/>
<line x1="220.225" y1="90.207" x2="304.861" y2="90.207" stroke="#5A5A5A" stroke-width="2"/>
<path d="M220.369 94.0824C220.369 98.5364 216.931 102.032 212.83 102.032C208.728 102.032 205.291 98.5364 205.291 94.0824C205.291 89.6284 208.728 86.1328 212.83 86.1328C216.931 86.1328 220.369 89.6284 220.369 94.0824Z" stroke="#41B4F4" stroke-width="3"/>
<circle cx="109.702" cy="197.622" r="7.94963" stroke="#41B4F4" stroke-width="3"/>
<path d="M262.674 215.939H264.18C264.18 213.802 262.105 212.827 260.414 212.603V211.043H258.908V212.603C257.217 212.827 255.142 213.802 255.142 215.939C255.142 217.977 257.15 219.037 258.908 219.276V223.019C257.817 222.83 256.648 222.248 256.648 221.212H255.142C255.142 223.162 256.968 224.314 258.908 224.553V226.108H260.414V224.548C262.105 224.324 264.18 223.349 264.18 221.212C264.18 219.075 262.105 218.1 260.414 217.876V214.131C261.416 214.311 262.674 214.84 262.674 215.939V215.939ZM256.648 215.939C256.648 214.84 257.906 214.311 258.908 214.131V217.746C257.875 217.555 256.648 216.991 256.648 215.939ZM262.674 221.212C262.674 222.311 261.416 222.839 260.414 223.019V219.404C261.416 219.584 262.674 220.113 262.674 221.212V221.212Z" fill="#1C980B"/>
</svg>
