<svg width="51" height="52" viewBox="0 0 51 52" fill="none" xmlns="http://www.w3.org/2000/svg">
<path d="M-0.0693359 25.969C-0.0693359 36.7658 6.25616 46.0412 15.3077 50.1193C15.2355 48.2781 15.2949 46.0678 15.7548 44.0645C16.2488 41.9241 19.0603 29.697 19.0603 29.697C19.0603 29.697 18.2397 28.0134 18.2397 25.5253C18.2397 21.6178 20.4461 18.6995 23.194 18.6995C25.5307 18.6995 26.6596 20.5009 26.6596 22.6581C26.6596 25.069 25.1614 28.6753 24.3909 32.0154C23.7473 34.8124 25.7573 37.0938 28.4456 37.0938C33.3128 37.0938 36.591 30.6773 36.591 23.075C36.591 17.2961 32.7989 12.9707 25.9016 12.9707C18.109 12.9707 13.2544 18.9354 13.2544 25.598C13.2544 27.8952 13.9143 29.5151 14.9479 30.7696C15.4231 31.3458 15.4891 31.5775 15.3171 32.2392C15.1939 32.7243 14.9109 33.8922 14.7937 34.3551C14.6227 35.0229 14.0955 35.2617 13.5075 35.0151C9.91824 33.5112 8.24665 29.4768 8.24665 24.9417C8.24665 17.4516 14.4012 8.47035 26.6066 8.47035C36.4146 8.47035 42.8699 15.755 42.8699 23.5747C42.8699 33.9182 37.2673 41.6456 29.0087 41.6456C26.2353 41.6456 23.6265 40.1068 22.7328 38.359C22.7328 38.359 21.2414 44.4341 20.9256 45.6072C20.3809 47.6402 19.3148 49.6721 18.34 51.2557C20.7037 51.9731 23.1557 52.3372 25.6206 52.337C39.8065 52.337 51.3087 40.5318 51.3087 25.969C51.3087 11.4068 39.8065 -0.398438 25.6206 -0.398438C11.4333 -0.398438 -0.0693359 11.4068 -0.0693359 25.969Z" fill="#111111" fill-opacity="0.68"/>
</svg>
