<svg width="26" height="43" viewBox="0 0 26 43" fill="none" xmlns="http://www.w3.org/2000/svg">
<path d="M11.875 0.477941C4.625 0.970129 0.8125 5.61075 0.5 13.9779H7.8125C7.875 11.0951 9.375 8.91544 12 8.56388C14.625 8.28263 17.125 8.98575 17.875 10.9545C18.6875 13.1342 16.875 15.6654 16 16.7201C14.375 18.6889 11.75 20.1654 10.375 22.2748C9.0625 24.3842 8.8125 27.1264 8.6875 30.5014H15.125C15.1875 28.3217 15.3125 26.2826 16.1875 24.9467C17.625 22.767 19.75 21.7826 21.5 20.0248C23.1875 18.4076 25 16.4389 25.25 13.3451C26.3125 4.27482 19.6875 -0.0845587 11.875 0.477941Z" fill="white"/>
<path d="M12.0625 42.5938C14.3062 42.5938 16.125 40.579 16.125 38.0937C16.125 35.6085 14.3062 33.5938 12.0625 33.5938C9.81884 33.5938 8 35.6085 8 38.0937C8 40.579 9.81884 42.5938 12.0625 42.5938Z" fill="white"/>
</svg>
