<svg width="35" height="35" viewBox="0 0 35 35" fill="none" xmlns="http://www.w3.org/2000/svg">
<path d="M16.57 27.3C13.9431 27.1758 11.465 26.0438 9.6504 24.1394C7.83585 22.2349 6.82432 19.7043 6.82594 17.0732C6.82594 11.422 11.4164 6.82927 17.0648 6.82927C22.5597 6.82927 27.0307 11.1488 27.2867 16.578L23.7031 15.5024C23.4241 14.3189 22.8344 13.2314 21.9946 12.3522C21.1549 11.4731 20.0958 10.8343 18.9267 10.5019C17.7576 10.1694 16.521 10.1554 15.3446 10.4612C14.1683 10.767 13.0949 11.3816 12.2355 12.2415C11.3761 13.1013 10.7618 14.1752 10.4561 15.3521C10.1504 16.529 10.1644 17.7663 10.4967 18.9359C10.829 20.1056 11.4675 21.1653 12.3462 22.0054C13.2249 22.8455 14.3119 23.4356 15.4949 23.7146L16.57 27.3V27.3ZM34.1297 17.0732C34.1297 17.5854 34.1126 18.0976 34.0614 18.6098L30.6997 17.6024C30.7167 17.4317 30.7167 17.2439 30.7167 17.0732C30.7167 9.52683 24.6075 3.41463 17.0648 3.41463C9.52218 3.41463 3.41297 9.52683 3.41297 17.0732C3.41297 24.6195 9.52218 30.7317 17.0648 30.7317C17.2355 30.7317 17.4232 30.7317 17.5939 30.7146L18.6007 34.078C18.0887 34.1293 17.5768 34.1463 17.0648 34.1463C7.64505 34.1463 0 26.4976 0 17.0732C0 7.64878 7.64505 0 17.0648 0C26.4846 0 34.1297 7.64878 34.1297 17.0732ZM27.6962 24.3463L34.1297 22.1951L17.0648 17.0732L22.1843 34.1463L24.3345 27.7098L31.6212 35L35 31.6195L27.6962 24.3463Z" fill="#53A2D3"/>
</svg>
