<svg width="28" height="28" viewBox="0 0 28 28" fill="none" xmlns="http://www.w3.org/2000/svg">
<path d="M9.88225 0H16.4704V7H9.88225V0ZM0 21H6.58817V28H0V21ZM0 10.5H6.58817V17.5H0V10.5ZM0 0H6.58817V7H0V0ZM16.4704 14.735V10.5H9.88225V17.5H13.8681L16.4704 14.735ZM27.8021 12.7575L25.875 10.71C25.8123 10.6433 25.7379 10.5904 25.6559 10.5544C25.5739 10.5183 25.4861 10.4997 25.3974 10.4997C25.3087 10.4997 25.2208 10.5183 25.1389 10.5544C25.0569 10.5904 24.9825 10.6433 24.9197 10.71L23.4704 12.25L26.3527 15.3125L27.8021 13.7725C27.8648 13.7059 27.9146 13.6268 27.9486 13.5397C27.9825 13.4526 28 13.3593 28 13.265C28 13.1707 27.9825 13.0774 27.9486 12.9903C27.9146 12.9032 27.8648 12.8241 27.8021 12.7575V12.7575ZM11.5293 24.9375V28H14.4116L25.3974 16.3275L22.5151 13.265L11.5293 24.9375ZM19.7645 0H26.3527V7H19.7645V0Z" fill="#FF9D43"/>
</svg>
