<svg width="38" height="42" viewBox="0 0 38 42" fill="none" xmlns="http://www.w3.org/2000/svg">
<path d="M37.6987 20.6605C32.6995 20.6605 27.9051 18.4838 24.3702 14.6092C20.8352 10.7346 18.8494 5.47952 18.8494 0C18.8494 5.47952 16.8635 10.7346 13.3285 14.6092C9.79358 18.4838 4.99916 20.6605 0 20.6605C2.47533 20.6605 4.92642 21.1949 7.21333 22.2332C9.50024 23.2715 11.5782 24.7934 13.3285 26.7119C15.0788 28.6304 16.4672 30.908 17.4145 33.4146C18.3618 35.9213 18.8494 38.6079 18.8494 41.3211C18.8494 38.6079 19.3369 35.9213 20.2842 33.4146C21.2315 30.908 22.6199 28.6304 24.3702 26.7119C26.1205 24.7934 28.1985 23.2715 30.4854 22.2332C32.7723 21.1949 35.2234 20.6605 37.6987 20.6605V20.6605Z" fill="#FDD835"/>
</svg>
