<svg width="54" height="53" viewBox="0 0 54 53" fill="none" xmlns="http://www.w3.org/2000/svg">
<path d="M27 0.828125C12.5499 0.828125 0.84375 12.3192 0.84375 26.5C0.84375 40.6808 12.5516 52.1719 27 52.1719C41.4501 52.1719 53.1563 40.6808 53.1563 26.5C53.1563 12.3192 41.4484 0.828125 27 0.828125ZM39.8469 18.4158L35.5539 38.271C35.2367 39.6788 34.3828 40.02 33.1914 39.3575L26.6524 34.6272L23.4984 37.6085C23.1508 37.9497 22.8555 38.2395 22.1805 38.2395L22.6446 31.7072L34.7625 20.9615C35.2907 20.506 34.6461 20.2477 33.9491 20.7031L18.9726 29.9566L12.5179 27.979C11.1156 27.5451 11.0835 26.6027 12.8132 25.9402L38.0312 16.3952C39.2023 15.9812 40.2249 16.6751 39.8453 18.4142L39.8469 18.4158Z" fill="#111111" fill-opacity="0.68"/>
</svg>
