<svg width="66" height="280" viewBox="0 0 66 280" fill="none" xmlns="http://www.w3.org/2000/svg">
<path fill-rule="evenodd" clip-rule="evenodd" d="M64.8581 112.208C61.5413 88.1345 48.7061 68.453 33.3577 50.4065C14.955 28.7689 -3.08338 2.69157 -30.1865 0.456053C-59.8599 -1.99149 -90.4842 13.0574 -107.839 38.7603C-124.314 63.1586 -120.803 96.0888 -114.778 125.736C-109.65 150.973 -91.683 167.923 -77.3544 188.775C-55.0346 221.256 -46.5947 280.079 -9.17851 279.412C27.7716 278.753 36.3114 222.131 52.1036 186.466C62.5458 162.884 68.4366 138.181 64.8581 112.208Z" fill="#F95954" fill-opacity="0.2"/>
<path fill-rule="evenodd" clip-rule="evenodd" d="M64.8581 112.208C61.5413 88.1345 48.7061 68.453 33.3577 50.4065C14.955 28.7689 -3.08338 2.69157 -30.1865 0.456053C-59.8599 -1.99149 -90.4842 13.0574 -107.839 38.7603C-124.314 63.1586 -120.803 96.0888 -114.778 125.736C-109.65 150.973 -91.683 167.923 -77.3544 188.775C-55.0346 221.256 -46.5947 280.079 -9.17851 279.412C27.7716 278.753 36.3114 222.131 52.1036 186.466C62.5458 162.884 68.4366 138.181 64.8581 112.208Z" fill="#F95954" fill-opacity="0.04"/>
</svg>
