<svg width="82" height="149" viewBox="0 0 82 149" fill="none" xmlns="http://www.w3.org/2000/svg">
<path fill-rule="evenodd" clip-rule="evenodd" d="M178.078 178.168C194.752 162.373 202.626 141.425 207.809 119.376C214.025 92.9397 223.87 64.3649 210.178 41.63C195.188 16.739 166.167 0.658836 136.48 0.935703C108.299 1.19854 84.9069 21.9884 65.4759 42.9795C48.9359 60.8474 46.0869 84.3753 38.1603 107.149C25.8128 142.623 -14.7384 181.482 7.05724 210.815C28.5814 239.784 77.0931 215.606 113.572 208.642C137.693 204.037 160.089 195.208 178.078 178.168Z" fill="#F95954" fill-opacity="0.11"/>
<path fill-rule="evenodd" clip-rule="evenodd" d="M178.078 178.168C194.752 162.373 202.626 141.425 207.809 119.376C214.025 92.9397 223.87 64.3649 210.178 41.63C195.188 16.739 166.167 0.658836 136.48 0.935703C108.299 1.19854 84.9069 21.9884 65.4759 42.9795C48.9359 60.8474 46.0869 84.3753 38.1603 107.149C25.8128 142.623 -14.7384 181.482 7.05724 210.815C28.5814 239.784 77.0931 215.606 113.572 208.642C137.693 204.037 160.089 195.208 178.078 178.168Z" fill="#F95954" fill-opacity="0.04"/>
</svg>
