<svg width="102" height="101" viewBox="0 0 102 101" fill="none" xmlns="http://www.w3.org/2000/svg">
<path fill-rule="evenodd" clip-rule="evenodd" d="M40.6522 0.7635C50.7134 -1.55599 58.734 9.33264 68.2002 13.5958C78.0646 18.0383 91.2156 17.1121 97.2206 26.2394C103.284 35.4549 101.468 48.2122 97.8135 58.6068C94.5792 67.8062 85.415 72.5658 78.5408 79.3711C72.0541 85.793 67.2221 94.0232 58.7482 97.2811C49.2094 100.948 38.6575 101.533 28.8784 98.464C18.0209 95.0571 4.51527 90.4239 1.43086 79.2959C-1.73491 67.8744 10.7143 58.547 14.7392 47.4526C17.5311 39.7568 17.3854 31.5357 21.3473 24.3972C26.424 15.2501 30.5725 3.08727 40.6522 0.7635Z" fill="#78D5D7"/>
</svg>
