<svg width="127" height="119" viewBox="0 0 127 119" fill="none" xmlns="http://www.w3.org/2000/svg">
<path fill-rule="evenodd" clip-rule="evenodd" d="M178.078 72.1675C194.752 56.3733 202.626 35.4252 207.809 13.3763C214.025 -13.0603 223.87 -41.6351 210.178 -64.37C195.188 -89.261 166.167 -105.341 136.48 -105.064C108.299 -104.801 84.9069 -84.0116 65.4759 -63.0205C48.9359 -45.1526 46.0869 -21.6247 38.1603 1.1486C25.8128 36.6227 -14.7384 75.4816 7.05724 104.815C28.5814 133.784 77.0931 109.606 113.572 102.642C137.693 98.0374 160.089 89.2078 178.078 72.1675Z" fill="#F95954" fill-opacity="0.11"/>
<path fill-rule="evenodd" clip-rule="evenodd" d="M178.078 72.1675C194.752 56.3733 202.626 35.4252 207.809 13.3763C214.025 -13.0603 223.87 -41.6351 210.178 -64.37C195.188 -89.261 166.167 -105.341 136.48 -105.064C108.299 -104.801 84.9069 -84.0116 65.4759 -63.0205C48.9359 -45.1526 46.0869 -21.6247 38.1603 1.1486C25.8128 36.6227 -14.7384 75.4816 7.05724 104.815C28.5814 133.784 77.0931 109.606 113.572 102.642C137.693 98.0374 160.089 89.2078 178.078 72.1675Z" fill="#F95954" fill-opacity="0.04"/>
</svg>
