<svg width="203" height="265" viewBox="0 0 203 265" fill="none" xmlns="http://www.w3.org/2000/svg">
<path fill-rule="evenodd" clip-rule="evenodd" d="M95.597 26.0434C120.752 7.78449 150.98 2.93892 182.113 2.06066C219.442 1.00762 260.478 -4.38474 288.39 20.6048C318.948 47.9642 334.433 91.9416 327.521 132.247C320.96 170.506 287.531 196.505 254.7 217.059C226.754 234.556 194.123 231.844 161.4 236.251C110.428 243.115 48.6433 287.396 13.5397 249.536C-21.1267 212.147 22.4408 152.928 39.9437 105.256C51.5172 73.7347 68.4578 45.7428 95.597 26.0434Z" fill="#F95954" fill-opacity="0.2"/>
<path fill-rule="evenodd" clip-rule="evenodd" d="M95.597 26.0434C120.752 7.78449 150.98 2.93892 182.113 2.06066C219.442 1.00762 260.478 -4.38474 288.39 20.6048C318.948 47.9642 334.433 91.9416 327.521 132.247C320.96 170.506 287.531 196.505 254.7 217.059C226.754 234.556 194.123 231.844 161.4 236.251C110.428 243.115 48.6433 287.396 13.5397 249.536C-21.1267 212.147 22.4408 152.928 39.9437 105.256C51.5172 73.7347 68.4578 45.7428 95.597 26.0434Z" fill="#F95954" fill-opacity="0.04"/>
</svg>
