<svg width="81" height="30" viewBox="0 0 81 30" fill="none" xmlns="http://www.w3.org/2000/svg">
<path d="M58.8769 1.76803C56.9918 0.977208 55.0012 0.578453 52.9968 0.590091C46.5244 0.590091 41.9504 4.38534 41.9226 9.81678C41.8694 13.8088 45.1651 16.059 47.6558 17.4043C50.2149 18.782 51.0705 19.6398 51.0578 20.8618C51.0452 22.7447 49.0126 23.5848 47.142 23.5848C44.5424 23.5848 43.1325 23.1736 40.9582 22.1161L40.1507 21.6725L39.2293 27.947C40.8113 28.6961 43.6463 29.3541 46.5725 29.4158C53.4676 29.4158 57.9631 25.6528 58.0137 19.8513C58.0669 16.67 56.3026 14.2553 52.5437 12.2637C50.2757 10.98 48.8557 10.1047 48.8557 8.78866C48.8557 7.62541 50.0681 6.4034 52.5994 6.4034C54.2792 6.35457 55.9492 6.71377 57.5024 7.45797L58.1226 7.77816L59.0313 1.73572L58.8769 1.76803ZM75.7021 1.11003H70.6396C69.0576 1.11003 67.8831 1.60059 67.1844 3.42184L57.4543 29.0163H64.3368L65.7239 24.8245L74.1201 24.8392C74.3302 25.8173 74.9225 29.0133 74.9225 29.0133H81L75.7021 1.11003ZM32.6025 0.880904H39.1559L35.0553 28.7989H28.5019L32.6025 0.866216V0.880904ZM15.9393 16.2558L16.6101 20.1421L23.0293 1.11003H29.9776L19.64 28.9693H12.7221L7.05206 5.37822C7.00862 5.18225 6.93123 4.99862 6.82461 4.83852C6.71798 4.67842 6.58436 4.54521 6.43191 4.44703C4.39522 3.21771 2.23466 2.28721 0 1.67697L0.0784687 1.09241H10.6515C12.0766 1.15409 13.2359 1.67697 13.6308 3.45122L15.9393 16.2705V16.2558ZM67.592 19.1169L70.2169 11.3002C70.1764 11.3737 70.756 9.69341 71.0851 8.63591L71.5331 11.0358L73.0519 19.0993H67.592V19.1169Z" fill="#699BF7"/>
</svg>
