<svg width="52" height="50" viewBox="0 0 52 50" fill="none" xmlns="http://www.w3.org/2000/svg">
<path d="M26.0001 0.0390625C11.6847 0.0390625 0.0800781 11.2139 0.0800781 24.9991C0.0800781 38.7843 11.6847 49.9591 26.0001 49.9591C40.3155 49.9591 51.9201 38.7843 51.9201 24.9991C51.9201 11.2139 40.3155 0.0390625 26.0001 0.0390625ZM35.9685 28.1997C35.9685 28.1997 38.2608 30.3785 38.8251 31.3899C38.8413 31.4107 38.8494 31.4315 38.8548 31.4419C39.0843 31.8137 39.1383 32.1023 39.0249 32.3181C38.8359 32.6769 38.1879 32.8537 37.9665 32.8693H33.9165C33.6357 32.8693 33.0471 32.7991 32.3343 32.3259C31.7862 31.9567 31.2462 31.3509 30.7197 30.7607C29.934 29.8819 29.2536 29.1227 28.5678 29.1227C28.4807 29.1225 28.3941 29.1357 28.3113 29.1617C27.7929 29.3229 27.1287 30.0353 27.1287 31.9333C27.1287 32.5261 26.6427 32.8667 26.2998 32.8667H24.4449C23.8131 32.8667 20.5218 32.6535 17.6058 29.6921C14.0364 26.0651 10.8234 18.7903 10.7964 18.7227C10.5939 18.2521 11.0124 17.9999 11.4687 17.9999H15.5592C16.1046 17.9999 16.2828 18.3197 16.407 18.6031C16.5528 18.9333 17.0874 20.2463 17.9649 21.7231C19.3878 24.1307 20.2599 25.1083 20.9592 25.1083C21.0903 25.1068 21.2191 25.0747 21.3345 25.0147C22.2471 24.5259 22.077 21.3929 22.0365 20.7429C22.0365 20.6207 22.0338 19.3415 21.5667 18.7279C21.2319 18.2833 20.6622 18.1143 20.3166 18.0519C20.4565 17.866 20.6408 17.7153 20.8539 17.6125C21.4803 17.3109 22.6089 17.2667 23.7294 17.2667H24.3531C25.5681 17.2823 25.8813 17.3577 26.3214 17.4643C27.2124 17.6697 27.2313 18.2235 27.153 20.1189C27.1287 20.6571 27.1044 21.2655 27.1044 21.9831C27.1044 22.1391 27.0963 22.3055 27.0963 22.4823C27.0693 23.4469 27.0369 24.5415 27.7443 24.9913C27.8365 25.047 27.9432 25.0767 28.0521 25.0771C28.2978 25.0771 29.0376 25.0771 31.041 21.7673C31.6588 20.7019 32.1957 19.5949 32.6475 18.4549C32.688 18.3873 32.8068 18.1793 32.9472 18.0987C33.0508 18.0478 33.1657 18.0219 33.282 18.0233H38.0907C38.6145 18.0233 38.9736 18.0987 39.0411 18.2937C39.1599 18.6031 39.0195 19.5469 36.8244 22.4095L35.8443 23.6549C33.8544 26.1665 33.8544 26.2939 35.9685 28.1997Z" fill="#111111" fill-opacity="0.68"/>
</svg>
