<svg width="50" height="51" viewBox="0 0 50 51" fill="none" xmlns="http://www.w3.org/2000/svg">
<path d="M29.9154 39.0137V33.8008C29.9154 32.694 29.6007 32.1406 28.9714 32.1406C28.6024 32.1406 28.2444 32.3177 27.8971 32.6719V40.1094C28.2444 40.4635 28.6024 40.6406 28.9714 40.6406C29.6007 40.6406 29.9154 40.0983 29.9154 39.0137ZM35.9049 34.9629H38.0534V33.834C38.0534 32.7051 37.6953 32.1406 36.9792 32.1406C36.263 32.1406 35.9049 32.7051 35.9049 33.834V34.9629ZM17.3177 26.1309V28.4551H14.7135V42.5H12.3047V28.4551H9.76563V26.1309H17.3177ZM23.8607 30.3145V42.5H21.6797V41.1719C20.8333 42.168 20.0087 42.666 19.2057 42.666C18.4896 42.666 18.0339 42.3561 17.8385 41.7363C17.7083 41.36 17.6432 40.7624 17.6432 39.9434V30.3145H19.7917V39.2793C19.7917 39.8105 19.8025 40.0983 19.8242 40.1426C19.8459 40.4746 20.0087 40.6406 20.3125 40.6406C20.7465 40.6406 21.2023 40.2975 21.6797 39.6113V30.3145H23.8607ZM32.0638 34V38.8477C32.0638 39.9987 31.9878 40.8066 31.8359 41.2715C31.5755 42.2012 31.0004 42.666 30.1107 42.666C29.3511 42.666 28.6133 42.2122 27.8971 41.3047V42.5H25.7161V26.1309H27.8971V31.4766C28.5916 30.5911 29.3294 30.1484 30.1107 30.1484C31.0004 30.1484 31.5755 30.6133 31.8359 31.543C31.9878 32.0078 32.0638 32.8268 32.0638 34ZM40.2344 38.2832V38.582C40.2344 39.224 40.2127 39.6999 40.1693 40.0098C40.1042 40.4967 39.9414 40.9395 39.681 41.3379C39.0951 42.2233 38.227 42.666 37.0768 42.666C35.9484 42.666 35.0694 42.2454 34.4401 41.4043C33.9844 40.8066 33.7565 39.8548 33.7565 38.5488V34.2656C33.7565 32.9596 33.9735 32.0078 34.4076 31.4102C35.0369 30.569 35.9049 30.1484 37.0117 30.1484C38.1185 30.1484 38.9648 30.569 39.5508 31.4102C40.0065 32.0521 40.2344 33.0039 40.2344 34.2656V36.7891H35.9049V38.9473C35.9049 40.0762 36.2739 40.6406 37.0117 40.6406C37.5326 40.6406 37.8581 40.3529 37.9883 39.7773C37.9883 39.7552 37.9937 39.6777 38.0046 39.5449C38.0154 39.4121 38.0208 39.2295 38.0208 38.9971V38.2832H40.2344ZM25.5534 10.9238V16.1035C25.5534 17.2324 25.2062 17.7969 24.5117 17.7969C23.8173 17.7969 23.4701 17.2324 23.4701 16.1035V10.9238C23.4701 9.77279 23.8173 9.19727 24.5117 9.19727C25.2062 9.19727 25.5534 9.77279 25.5534 10.9238ZM42.9036 34.5977C42.9036 30.6797 42.6975 27.8021 42.2852 25.9648C42.0681 24.9909 41.6016 24.1774 40.8854 23.5244C40.1693 22.8714 39.3446 22.4896 38.4115 22.3789C35.4601 22.0469 30.9896 21.8809 25 21.8809C19.0321 21.8809 14.5725 22.0469 11.6211 22.3789C10.6662 22.4896 9.83615 22.8714 9.13086 23.5244C8.42556 24.1774 7.96441 24.9909 7.7474 25.9648C7.31337 27.8906 7.09635 30.7682 7.09635 34.5977C7.09635 38.4935 7.31337 41.3711 7.7474 43.2305C7.96441 44.1823 8.42556 44.9902 9.13086 45.6543C9.83615 46.3184 10.6554 46.7057 11.5885 46.8164C14.5616 47.1484 19.0321 47.3145 25 47.3145C30.9679 47.3145 35.4384 47.1484 38.4115 46.8164C39.3446 46.7057 40.1638 46.3184 40.8691 45.6543C41.5744 44.9902 42.0356 44.1823 42.2526 43.2305C42.6866 41.3711 42.9036 38.4935 42.9036 34.5977ZM18.3268 12.9824L21.2565 3.1543H18.8151L17.1549 9.62891L15.4297 3.1543H12.8906C13.0425 3.66341 13.2921 4.42708 13.6393 5.44531L14.4206 7.73633C15.1801 10.0163 15.6793 11.765 15.918 12.9824V19.6563H18.3268V12.9824ZM27.7344 15.6719V11.3555C27.7344 10.0716 27.5065 9.10872 27.0508 8.4668C26.4214 7.62565 25.5751 7.20508 24.5117 7.20508C23.4049 7.20508 22.5586 7.62565 21.9727 8.4668C21.5169 9.10872 21.2891 10.0716 21.2891 11.3555V15.6719C21.2891 16.9557 21.5169 17.9186 21.9727 18.5605C22.5586 19.4017 23.4049 19.8223 24.5117 19.8223C25.5751 19.8223 26.4214 19.4017 27.0508 18.5605C27.5065 17.9629 27.7344 17 27.7344 15.6719ZM33.6263 19.6563H35.8073V7.37109H33.6263V16.7676C33.1489 17.4538 32.6931 17.7969 32.2591 17.7969C31.9336 17.7969 31.76 17.6198 31.7383 17.2656C31.7166 17.2214 31.7057 16.9336 31.7057 16.4023V7.37109H29.5247V17.0996C29.5247 17.9186 29.5898 18.5273 29.7201 18.9258C29.9588 19.5234 30.4253 19.8223 31.1198 19.8223C31.901 19.8223 32.7365 19.3242 33.6263 18.3281V19.6563ZM50 9.5625V41.4375C50 44.0716 49.0831 46.3239 47.2493 48.1943C45.4156 50.0648 43.2075 51 40.625 51H9.375C6.79253 51 4.58442 50.0648 2.75065 48.1943C0.916884 46.3239 0 44.0716 0 41.4375V9.5625C0 6.92839 0.916884 4.67611 2.75065 2.80566C4.58442 0.935222 6.79253 0 9.375 0H40.625C43.2075 0 45.4156 0.935222 47.2493 2.80566C49.0831 4.67611 50 6.92839 50 9.5625Z" fill="#111111" fill-opacity="0.68"/>
</svg>
